<svg width="415" height="72" viewBox="0 0 415 72" fill="none" xmlns="http://www.w3.org/2000/svg">
<path d="M280.127 70.0071L280.432 68.5791C281.122 68.86 281.858 69.0118 282.603 69.0269C283.519 69.0269 283.977 68.7143 283.977 68.089C283.99 67.9428 283.964 67.7957 283.902 67.6624C283.841 67.5291 283.745 67.414 283.625 67.3287C283.226 67.0951 282.799 66.9147 282.353 66.7921C281.737 66.608 281.169 66.2907 280.691 65.8627C280.498 65.6592 280.349 65.4186 280.252 65.1556C280.156 64.8926 280.115 64.6128 280.131 64.3334C280.113 64.0045 280.171 63.6759 280.3 63.3727C280.43 63.0696 280.627 62.7999 280.877 62.5845C281.482 62.1396 282.226 61.9213 282.976 61.9677C283.738 61.9529 284.495 62.0968 285.198 62.3901L284.868 63.7927C284.301 63.5602 283.695 63.4369 283.082 63.4293C282.255 63.4293 281.844 63.7124 281.844 64.2742C281.835 64.4006 281.856 64.5272 281.906 64.6439C281.955 64.7606 282.031 64.8641 282.128 64.946C282.453 65.1608 282.807 65.3273 283.18 65.4403C283.578 65.5783 283.909 65.7093 284.172 65.8331C284.443 65.9633 284.698 66.1249 284.931 66.3147C285.175 66.5068 285.365 66.7586 285.482 67.0456C285.608 67.3701 285.669 67.716 285.661 68.0637C285.678 68.405 285.613 68.7456 285.47 69.0561C285.326 69.3666 285.11 69.6378 284.838 69.8465C284.202 70.2927 283.435 70.5142 282.658 70.476C281.785 70.5 280.917 70.3357 280.114 69.9944" fill="#2B2B2B"/>
<path d="M291.971 70.345L291.475 68.5327H288.442C288.276 69.0819 288.11 69.686 287.946 70.345H286.195C286.92 67.5257 287.881 64.7716 289.066 62.1113H290.826C292.02 64.7692 292.985 67.5238 293.709 70.345H291.971ZM289.952 63.8983C289.516 64.9417 289.145 66.0112 288.841 67.1005H291.05C290.75 66.0118 290.383 64.9424 289.952 63.8983Z" fill="#2B2B2B"/>
<path d="M294.015 67.0752V62.1113H295.711V66.9569C295.711 68.3215 296.245 69.0058 297.306 69.0058C298.366 69.0058 298.892 68.3215 298.892 66.9569V62.1113H300.588V67.0752C300.65 67.9982 300.345 68.9085 299.74 69.6099C299.418 69.9174 299.035 70.1544 298.616 70.3057C298.197 70.4571 297.75 70.5193 297.306 70.4887C296.86 70.5187 296.413 70.456 295.994 70.3047C295.574 70.1535 295.19 69.9169 294.867 69.6099C294.26 68.9095 293.955 67.9984 294.019 67.0752" fill="#2B2B2B"/>
<path d="M302.212 70.3449V62.1112H304.981C305.535 62.0935 306.087 62.1869 306.604 62.3858C307.121 62.5848 307.592 62.8851 307.99 63.2693C308.388 63.6533 308.705 64.113 308.921 64.6214C309.137 65.1296 309.248 65.6761 309.248 66.2281C309.248 66.7801 309.137 67.3264 308.921 67.8347C308.705 68.343 308.388 68.8029 307.99 69.1869C307.592 69.5709 307.121 69.8714 306.604 70.0702C306.087 70.2692 305.535 70.3626 304.981 70.3449H302.212ZM304.93 63.5434H303.904V68.9086H304.93C306.539 68.9086 307.342 68.0073 307.339 66.2048C307.336 64.4023 306.533 63.5153 304.93 63.5434Z" fill="#2B2B2B"/>
<path d="M312.063 62.1072H310.376V70.3452H312.063V62.1072Z" fill="#2B2B2B"/>
<path d="M321.618 70.345L321.122 68.5327H318.077C317.91 69.0819 317.744 69.686 317.581 70.345H315.842C316.567 67.5257 317.528 64.7716 318.713 62.1113H320.473C321.669 64.7685 322.634 67.5232 323.356 70.345H321.618ZM319.599 63.8983C319.163 64.9417 318.791 66.0112 318.488 67.1005H320.697C320.397 66.0118 320.03 64.9424 319.599 63.8983Z" fill="#2B2B2B"/>
<path d="M326.609 67.2865H326.1V70.3452H324.404V62.1113H326.838C327.684 62.0618 328.524 62.2839 329.234 62.7451C329.515 62.9538 329.739 63.2286 329.887 63.545C330.035 63.8612 330.102 64.209 330.082 64.5574C330.082 65.7403 329.535 66.4739 328.441 66.7584C328.883 67.0012 329.229 67.3873 329.421 67.8526L330.625 70.3452H328.806L327.682 68.0173C327.579 67.7985 327.425 67.6072 327.232 67.4598C327.043 67.3382 326.821 67.2777 326.596 67.2865M326.736 63.5435H326.087V65.8755H326.736C327.808 65.8755 328.343 65.4826 328.343 64.6968C328.361 64.5264 328.334 64.3544 328.264 64.1979C328.194 64.0415 328.084 63.9061 327.945 63.8054C327.574 63.6074 327.156 63.5167 326.736 63.5435Z" fill="#2B2B2B"/>
<path d="M336.858 70.345L336.362 68.5327H333.313C333.146 69.0819 332.981 69.686 332.817 70.345H331.083C331.805 67.5253 332.764 64.771 333.949 62.1113H335.709C336.906 64.7685 337.87 67.5232 338.593 70.345H336.858ZM334.836 63.8983C334.399 64.9417 334.028 66.0112 333.725 67.1005H335.938C335.64 66.0112 335.273 64.9416 334.84 63.8983" fill="#2B2B2B"/>
<path d="M342.418 70.3451H339.619V62.1114H342.164C342.947 62.0669 343.726 62.2551 344.403 62.6522C344.665 62.8237 344.877 63.0606 345.018 63.3394C345.16 63.618 345.225 63.9288 345.208 64.2406C345.223 64.5774 345.147 64.9121 344.987 65.2094C344.827 65.5067 344.59 65.7558 344.301 65.9304C344.683 66.0922 345.005 66.368 345.223 66.7198C345.441 67.0717 345.544 67.4822 345.518 67.8948C345.542 68.2424 345.48 68.5905 345.336 68.9083C345.193 69.2259 344.972 69.5033 344.695 69.7157C344.02 70.1618 343.218 70.3769 342.409 70.3282M341.252 63.5266V65.5164H342.469C342.611 65.5378 342.757 65.5259 342.894 65.4819C343.031 65.4378 343.156 65.3627 343.259 65.2624C343.362 65.1621 343.441 65.0394 343.488 64.9039C343.536 64.7684 343.551 64.6238 343.533 64.4814C343.533 63.8477 343.08 63.5266 342.176 63.5266H341.252ZM341.252 66.788V68.9003H342.299C342.704 68.9254 343.109 68.8453 343.474 68.668C343.606 68.5853 343.713 68.4677 343.783 68.3283C343.852 68.1889 343.882 68.0331 343.868 67.878C343.868 67.1556 343.393 66.7965 342.439 66.7965L341.252 66.788Z" fill="#2B2B2B"/>
<path d="M348.478 62.1072H346.79V70.3452H348.478V62.1072Z" fill="#2B2B2B"/>
<path d="M355.284 70.345L354.788 68.5327H351.739C351.575 69.0819 351.41 69.686 351.243 70.345H349.508C350.231 67.5253 351.19 64.771 352.375 62.1113H354.135C355.331 64.7685 356.296 67.5232 357.019 70.345H355.284ZM353.261 63.8983C352.825 64.9417 352.454 66.0112 352.15 67.1005H354.36C354.062 66.0112 353.695 64.9416 353.261 63.8983Z" fill="#2B2B2B"/>
<path d="M363.006 67.2865H362.498V70.3451H360.801V62.1114H363.236C364.083 62.0626 364.924 62.2846 365.636 62.745C365.916 62.9538 366.141 63.2287 366.289 63.5449C366.437 63.8611 366.504 64.2089 366.484 64.5573C366.484 65.7402 365.937 66.474 364.843 66.7583C365.285 67.0011 365.631 67.3872 365.822 67.8525L367.027 70.3451H365.199L364.075 68.0173C363.972 67.7984 363.818 67.6072 363.626 67.4597C363.437 67.3382 363.214 67.2777 362.99 67.2865M363.134 63.5435H362.481V65.8754H363.134C364.202 65.8754 364.737 65.4825 364.737 64.6967C364.755 64.5264 364.727 64.3543 364.657 64.1978C364.587 64.0414 364.477 63.9061 364.338 63.8053C363.969 63.6074 363.552 63.5165 363.134 63.5435Z" fill="#2B2B2B"/>
<path d="M373.256 70.345L372.76 68.5327H369.711C369.544 69.0819 369.379 69.686 369.215 70.345H367.481C368.203 67.5253 369.162 64.771 370.347 62.1113H372.111C373.304 64.7694 374.267 67.524 374.991 70.345H373.256ZM371.234 63.8983C370.799 64.9421 370.429 66.0115 370.127 67.1005H372.332C372.034 66.0112 371.667 64.9416 371.234 63.8983Z" fill="#2B2B2B"/>
<path d="M377.726 62.1072H376.038V70.3452H377.726V62.1072Z" fill="#2B2B2B"/>
<path d="M379.426 70.3452V62.1072H381.114V68.913H384.455V70.3452H379.426Z" fill="#2B2B2B"/>
<path d="M392.268 68.7566C392.519 68.0216 392.79 67.026 393.081 65.7698C393.372 64.5137 393.6 63.2942 393.764 62.1113H395.491C394.924 65.4909 394.182 68.2355 393.259 70.345H391.402C390.758 68.6775 390.246 66.9628 389.867 65.2163C389.481 66.9621 388.963 68.6765 388.32 70.345H386.465C385.953 69.0802 385.528 67.7815 385.194 66.4584C384.801 64.9713 384.49 63.5224 384.261 62.1113H385.957C386.14 63.3111 386.376 64.5404 386.661 65.7993C386.877 66.7992 387.147 67.7864 387.471 68.7566C387.776 67.9314 388.087 66.9104 388.404 65.6937C388.71 64.5145 388.947 63.3182 389.112 62.1113H390.643C390.816 63.3304 391.057 64.5391 391.364 65.7317C391.614 66.7568 391.923 67.7667 392.288 68.7566" fill="#2B2B2B"/>
<path d="M400.995 70.345L400.499 68.5327H397.449C397.286 69.0819 397.12 69.686 396.953 70.345H395.219C395.942 67.5251 396.903 64.7708 398.089 62.1113H399.85C401.042 64.7694 402.006 67.524 402.729 70.345H400.995ZM398.976 63.8983C398.533 64.9408 398.158 66.0104 397.852 67.1005H400.061C399.759 66.0124 399.393 64.9432 398.963 63.8983" fill="#2B2B2B"/>
<path d="M405.413 70.345H403.717V67.0499C402.591 65.5307 401.669 63.8702 400.978 62.1113H402.712C403.198 63.3666 403.821 64.5652 404.569 65.6853C405.313 64.5651 405.93 63.3665 406.41 62.1113H408.149C407.446 63.8648 406.526 65.5239 405.409 67.0499L405.413 70.345Z" fill="#2B2B2B"/>
<path d="M408.649 70.0071L408.954 68.5791C409.646 68.8604 410.383 69.0122 411.13 69.0269C412.042 69.0269 412.499 68.7143 412.499 68.089C412.511 67.9434 412.485 67.7972 412.424 67.6643C412.363 67.5313 412.269 67.4158 412.152 67.3287C411.753 67.0963 411.324 66.9161 410.879 66.7921C410.264 66.609 409.698 66.2915 409.222 65.8627C409.027 65.66 408.877 65.4196 408.78 65.1565C408.683 64.8935 408.641 64.6132 408.658 64.3334C408.639 64.0045 408.698 63.6759 408.827 63.3727C408.957 63.0695 409.154 62.7999 409.404 62.5844C410.014 62.1351 410.766 61.9165 411.524 61.9676C412.285 61.9534 413.04 62.0973 413.742 62.39L413.411 63.7927C412.846 63.5603 412.242 63.4369 411.63 63.4293C410.782 63.4293 410.387 63.7124 410.387 64.2743C410.38 64.4005 410.402 64.5267 410.451 64.6433C410.5 64.7598 410.575 64.8634 410.672 64.946C410.997 65.1599 411.35 65.3264 411.723 65.4403C412.06 65.5536 412.392 65.6848 412.716 65.8331C412.988 65.964 413.244 66.1256 413.479 66.3147C413.72 66.5081 413.909 66.7597 414.026 67.0456C414.151 67.3701 414.212 67.716 414.205 68.0637C414.222 68.405 414.157 68.7456 414.013 69.056C413.87 69.3666 413.653 69.6378 413.381 69.8465C412.745 70.2926 411.979 70.5142 411.202 70.476C410.329 70.4995 409.46 70.3353 408.658 69.9943" fill="#2B2B2B"/>
<path d="M318.441 43.4976H331.736L344.199 3.24146H339.733L318.441 43.4976Z" fill="#2B2B2B"/>
<path d="M350.569 3.24573H346.107L358.571 43.4977H371.865L350.569 3.24573Z" fill="#2B2B2B"/>
<path d="M282.111 35.678V43.4681H304.396C307.593 43.4434 310.648 42.1549 312.891 39.8858C315.134 37.6168 316.38 34.5532 316.355 31.3689C316.33 28.1846 315.037 25.1405 312.759 22.9064C310.481 20.6722 307.406 19.4309 304.21 19.4555H292.225C291.116 19.4544 290.052 19.0147 289.267 18.233C288.482 17.4512 288.041 16.3913 288.04 15.2859V15.1929C288.041 14.0874 288.482 13.0275 289.267 12.2457C290.052 11.464 291.116 11.0243 292.225 11.0232H312.322V3.22461H291.967C288.802 3.27449 285.783 4.5616 283.562 6.80838C281.341 9.0552 280.095 12.0816 280.093 15.2351C280.097 18.4228 281.372 21.4784 283.636 23.7304C285.901 25.9825 288.97 27.2468 292.17 27.2457H304.154C305.263 27.2468 306.327 27.6859 307.111 28.4667C307.896 29.2475 308.338 30.3063 308.34 31.4111V31.5294C308.339 32.6349 307.898 33.6948 307.113 34.4766C306.328 35.2583 305.264 35.698 304.154 35.699L282.111 35.678Z" fill="#2B2B2B"/>
<path d="M378.171 43.4977H385.805C385.831 43.4977 385.855 43.4874 385.873 43.4693C385.892 43.451 385.902 43.4263 385.902 43.4005V11.1119C385.902 11.0872 385.912 11.0636 385.929 11.0463C385.947 11.0288 385.971 11.019 385.996 11.019H399.565C400.701 11.019 401.789 11.4681 402.591 12.2674C403.394 13.0669 403.845 14.1511 403.845 15.2816C403.844 16.3872 403.402 17.4471 402.617 18.2287C401.833 19.0105 400.768 19.4501 399.659 19.4513H390.177C390.16 19.4514 390.143 19.4559 390.129 19.4643C390.114 19.4727 390.102 19.4847 390.093 19.4992C390.086 19.5136 390.08 19.5301 390.08 19.5469C390.08 19.5636 390.084 19.5802 390.092 19.5949L403.684 43.3584C403.691 43.3736 403.704 43.3863 403.719 43.3952C403.734 43.4041 403.751 43.4089 403.769 43.409H412.186C412.203 43.4089 412.219 43.4043 412.234 43.3959C412.248 43.3876 412.26 43.3755 412.269 43.3611C412.278 43.3466 412.282 43.3302 412.282 43.3135C412.283 43.2966 412.279 43.2801 412.27 43.2653L403.277 27.7611L402.853 26.988C402.845 26.976 402.841 26.9626 402.839 26.949C402.838 26.9352 402.841 26.9212 402.845 26.9083C402.85 26.8954 402.858 26.8836 402.868 26.8741C402.878 26.8644 402.89 26.8571 402.903 26.8528L403.751 26.5529C404.96 26.1233 406.092 25.5059 407.106 24.7236C409.037 23.2321 410.466 21.1915 411.207 18.872C411.947 16.5525 411.963 14.0637 411.252 11.7352C410.54 9.4067 409.136 7.34843 407.224 5.83313C405.312 4.31784 402.982 3.41699 400.545 3.24995C400.329 3.24995 400.122 3.22883 399.9 3.22461H378.188C378.163 3.22461 378.138 3.23485 378.119 3.25307C378.101 3.27128 378.091 3.296 378.091 3.32177V43.4005C378.091 43.4263 378.101 43.451 378.119 43.4693C378.138 43.4874 378.163 43.4977 378.188 43.4977" fill="#2B2B2B"/>
<path d="M284.058 48.4236L284.978 49.3065L286.076 48.1997L284.953 47.0801L284.058 47.9715L283.142 47.0801L282.031 48.1997L283.15 49.3065L284.058 48.4236Z" fill="#2B2B2B"/>
<path d="M282.557 54.904C281.861 54.904 281.467 54.5493 281.467 53.9663C281.467 53.0368 282.281 52.3017 283.748 52.0144V53.9663C283.75 54.2012 283.77 54.4356 283.808 54.6675C283.41 54.8264 282.985 54.9067 282.557 54.904ZM286.076 56.4377H287.056C288.799 56.4377 289.706 55.5251 289.706 54.0972C289.665 52.9483 289.545 51.8035 289.346 50.6711H287.845C288.041 51.7199 288.16 52.7817 288.201 53.8479C288.201 54.5493 287.925 54.8703 287.056 54.8703H286.076C285.445 54.8703 285.254 54.5619 285.254 54.0254V50.0289H283.748V50.6711C280.954 51.123 280 52.7833 280 54.1098C280 55.5589 280.979 56.4249 282.544 56.4249C283.203 56.4002 283.843 56.1957 284.393 55.8335C284.622 56.0402 284.89 56.1989 285.181 56.3005C285.472 56.4021 285.781 56.4444 286.089 56.4249" fill="#2B2B2B"/>
<path d="M287.845 58.0092L286.95 57.1516L285.839 58.2585L286.971 59.3653L287.845 58.5078L288.727 59.3653L289.838 58.2585L288.714 57.1516L287.845 58.0092Z" fill="#2B2B2B"/>
<path d="M292.548 50.6711C293.358 52.3608 293.82 53.7381 293.82 54.1816C293.82 54.6253 293.451 54.8703 292.59 54.8703C291.925 54.8585 291.263 54.7619 290.622 54.583L290.334 56.07C291.181 56.3126 292.057 56.4363 292.938 56.4376C294.49 56.4376 295.3 55.7025 295.3 54.4056C295.3 53.5986 294.833 52.1581 294.083 50.6711H292.548Z" fill="#2B2B2B"/>
<path d="M306.033 54.5958C305.588 53.784 305.061 53.0195 304.46 52.3146C304.908 52.1144 305.39 52.0011 305.88 51.9809C306.809 51.9809 307.348 52.4032 307.348 53.0032C307.348 53.603 306.822 54.241 306.033 54.5958ZM299.494 54.9042C298.289 54.9042 297.632 54.4523 297.632 53.5397C297.619 53.3632 297.642 53.1859 297.699 53.0184C297.757 52.851 297.848 52.6969 297.966 52.5654C298.085 52.4339 298.23 52.3278 298.391 52.2535C298.552 52.1792 298.727 52.1381 298.904 52.1329C299.608 52.1329 300.024 52.5554 300.088 53.5016C300.088 53.9241 300.147 54.3466 300.168 54.8958H299.49M321.541 53.8396C321.541 54.5409 321.265 54.862 320.396 54.862C319.899 54.8727 319.408 54.7485 318.976 54.5029C319.17 53.6939 319.258 52.8631 319.239 52.0315V51.1866H317.839V52.0315C317.839 53.1595 317.78 53.8734 317.576 54.3044C317.487 54.4959 317.338 54.6537 317.152 54.7542C316.965 54.8546 316.751 54.8925 316.541 54.862C316.131 54.8609 315.727 54.7671 315.358 54.5874C315.574 53.7604 315.67 52.9067 315.642 52.0526H314.234C314.234 53.1806 314.175 53.8946 313.972 54.3254C313.882 54.5174 313.732 54.6753 313.545 54.7757C313.358 54.8763 313.143 54.9139 312.933 54.8831C312.49 54.8796 312.055 54.774 311.66 54.5747C311.861 53.7452 311.954 52.8932 311.936 52.04H310.537C310.537 53.1679 310.477 53.8819 310.274 54.3128C310.209 54.4952 310.084 54.65 309.919 54.7514C309.754 54.8529 309.559 54.895 309.366 54.8704C308.836 54.8785 308.306 54.8461 307.78 54.7733C308.093 54.5041 308.345 54.1724 308.52 53.7997C308.696 53.4271 308.79 53.0218 308.798 52.6103C308.798 51.3979 307.687 50.4347 306.008 50.4347C304.969 50.4347 303.654 50.9204 302.305 51.8034L302.925 53.0708L303.26 52.8933C303.781 53.4638 304.238 54.0901 304.621 54.7606C303.849 54.858 303.071 54.9018 302.293 54.8916H301.631C301.631 54.2368 301.606 53.8227 301.58 53.4045C301.487 51.6217 300.473 50.612 298.981 50.612C297.382 50.612 296.186 51.8794 296.186 53.6073C296.186 55.3352 297.416 56.4589 299.316 56.4589H300.126C299.863 57.2108 298.853 57.6629 297.2 57.6629V58.9895C300.168 58.9895 301.44 57.9544 301.631 56.4293H302.31C304.15 56.4293 305.007 56.3026 306.224 55.7872C307.2 56.2507 308.272 56.4793 309.353 56.4546C309.686 56.4725 310.019 56.4117 310.324 56.2774C310.629 56.143 310.898 55.9389 311.109 55.6816C311.919 56.1885 312.432 56.4546 313.039 56.4546C313.364 56.4705 313.689 56.4125 313.989 56.2852C314.288 56.1579 314.555 55.9644 314.769 55.7196C315.532 56.2181 316.041 56.4546 316.63 56.4546C316.976 56.4706 317.321 56.4046 317.637 56.2622C317.952 56.1197 318.229 55.9048 318.446 55.6351C318.963 56.1419 319.654 56.4347 320.379 56.4546C322.122 56.4546 323.03 55.5422 323.03 54.1142V47.8196H321.52L321.541 53.8396Z" fill="#2B2B2B"/>
<path d="M326.461 47.8196H324.955V56.442H326.461V47.8196Z" fill="#2B2B2B"/>
<path d="M334.454 48.4236L335.374 49.3065L336.472 48.1997L335.353 47.0801L334.454 47.9715L333.538 47.0801L332.427 48.1997L333.551 49.3065L334.454 48.4236Z" fill="#2B2B2B"/>
<path d="M338.241 58.0092L337.342 57.1516L336.235 58.2585L337.368 59.3653L338.241 58.5078L339.123 59.3653L340.234 58.2585L339.111 57.1516L338.241 58.0092Z" fill="#2B2B2B"/>
<path d="M332.97 54.904C332.274 54.904 331.88 54.5493 331.88 53.9663C331.88 53.0368 332.694 52.3017 334.161 52.0144V53.9663C334.163 54.2012 334.183 54.4356 334.221 54.6675C333.823 54.8264 333.398 54.9067 332.97 54.904ZM336.489 56.4377H337.469C339.212 56.4377 340.12 55.5251 340.12 54.0972C340.078 52.9483 339.958 51.8035 339.759 50.6711H338.258C338.454 51.7199 338.573 52.7817 338.614 53.8479C338.614 54.5493 338.338 54.8703 337.469 54.8703H336.489C335.858 54.8703 335.667 54.5619 335.667 54.0254V50.0289H334.161V50.6711C331.367 51.123 330.413 52.7833 330.413 54.1098C330.413 55.5589 331.392 56.4249 332.957 56.4249C333.616 56.4002 334.256 56.1957 334.806 55.8335C335.035 56.0402 335.303 56.1989 335.594 56.3005C335.885 56.4021 336.194 56.4444 336.502 56.4249" fill="#2B2B2B"/>
<path d="M346.701 56.4546H347.681C349.424 56.4546 350.331 55.5421 350.331 54.1141C350.292 52.9653 350.173 51.8205 349.975 50.688H348.47C348.666 51.7369 348.785 52.7987 348.826 53.865C348.826 54.5662 348.554 54.8873 347.681 54.8873H346.701C346.402 54.8928 346.111 54.7935 345.879 54.6066C345.646 54.4196 345.487 54.1571 345.429 53.865C345.14 52.823 344.929 51.7611 344.797 50.688H343.245C343.449 51.9402 343.739 53.1767 344.114 54.3887L344.259 54.7564C343.795 54.8499 343.323 54.8938 342.851 54.8873C342.224 54.8817 341.601 54.7849 341.002 54.6L340.713 56.0871C341.393 56.3339 342.111 56.4583 342.834 56.4546C343.606 56.4625 344.362 56.2388 345.005 55.8125C345.463 56.2418 346.073 56.4727 346.701 56.4546Z" fill="#2B2B2B"/>
<path d="M348.469 58.0092L347.575 57.1516L346.463 58.2585L347.596 59.3653L348.469 58.5078L349.351 59.3653L350.462 58.2585L349.339 57.1516L348.469 58.0092Z" fill="#2B2B2B"/>
<path d="M365.623 53.8481C365.623 54.5494 365.348 54.8704 364.478 54.8704C363.749 54.8704 363.354 54.7057 363.176 54.4185L363.545 54.3466L363.969 52.8257C361.785 52.2765 360.975 50.5909 359.173 50.5909C358.577 50.6149 357.995 50.7815 357.477 51.0768L357.901 52.4075C358.275 52.2355 358.681 52.142 359.092 52.1329C360.144 52.1329 360.729 52.8976 362.091 53.5482C360.683 54.0846 359.737 54.8704 356.955 54.8704C356.656 54.876 356.365 54.7766 356.133 54.5897C355.9 54.4028 355.741 54.1403 355.683 53.8481C355.394 52.8062 355.183 51.7443 355.051 50.6712H353.499C353.702 51.9239 353.994 53.1607 354.373 54.3719L354.513 54.7395C354.049 54.833 353.577 54.8769 353.105 54.8704C352.478 54.8649 351.855 54.768 351.256 54.5832L350.967 56.0702C351.647 56.317 352.365 56.4415 353.088 56.4378C353.86 56.4456 354.616 56.2219 355.259 55.7957C355.717 56.2245 356.327 56.4554 356.955 56.4378C360.119 56.4378 360.623 55.3436 362.235 54.7057C362.375 55.8463 363.151 56.4378 364.478 56.4378C366.221 56.4378 367.129 55.5252 367.129 54.0973V47.8196H365.623V53.8481Z" fill="#2B2B2B"/>
<path d="M370.542 47.8196H369.037V56.442H370.542V47.8196Z" fill="#2B2B2B"/>
<path d="M378.871 54.8703C378.227 54.8703 377.629 54.845 377.035 54.7984C379.155 52.4665 379.957 51.6849 381.034 51.6849C381.212 51.6734 381.39 51.6983 381.558 51.7579C381.727 51.8175 381.881 51.9108 382.011 52.0318C382.141 52.1528 382.246 52.2991 382.318 52.4618C382.39 52.6245 382.428 52.8 382.429 52.9776C382.429 54.0719 381.034 54.8703 378.871 54.8703ZM381.314 50.1177C380.042 50.1177 379.037 50.8063 377.209 52.7918C377.396 52.0362 377.504 51.2631 377.531 50.4852V47.8237H376.026V54.131C375.894 54.3 375.75 54.4521 375.602 54.6211C375.228 54.5746 374.872 54.5028 374.516 54.4309L374.228 55.9053C375.716 56.2568 377.24 56.441 378.769 56.4545C382.099 56.4545 383.952 54.9801 383.952 52.7833C383.97 52.4317 383.915 52.08 383.789 51.7508C383.664 51.4215 383.471 51.122 383.222 50.8712C382.975 50.6204 382.677 50.4238 382.347 50.294C382.019 50.1643 381.667 50.1042 381.314 50.1177Z" fill="#2B2B2B"/>
<path d="M404.858 48.7447L403.734 47.642L402.628 48.7447L403.747 49.8515L404.858 48.7447Z" fill="#2B2B2B"/>
<path d="M394.927 54.8704H393.077C395.155 52.5764 396.012 51.6807 397.063 51.6807C397.241 51.6698 397.419 51.6952 397.587 51.7555C397.754 51.8157 397.907 51.9095 398.036 52.0311C398.166 52.1526 398.269 52.2994 398.339 52.4621C398.41 52.6249 398.446 52.8004 398.446 52.9778C398.446 54.0719 397.051 54.8704 394.927 54.8704ZM388.141 54.9042C386.937 54.9042 386.279 54.4521 386.279 53.5396C386.266 53.3631 386.289 53.1858 386.347 53.0183C386.403 52.8508 386.495 52.6968 386.614 52.5653C386.733 52.4338 386.877 52.3277 387.038 52.2534C387.199 52.1791 387.374 52.138 387.552 52.1328C388.255 52.1328 388.675 52.5553 388.735 53.5015C388.76 53.924 388.794 54.3465 388.819 54.8957H388.136M409.386 53.8396C409.386 54.5408 409.111 54.8619 408.238 54.8619C407.513 54.8619 407.118 54.6929 406.94 54.4099L407.309 54.338L407.733 52.8172C405.549 52.268 404.739 50.5823 402.936 50.5823C402.341 50.6059 401.758 50.7725 401.24 51.0682L401.665 52.3989C402.04 52.227 402.448 52.1335 402.86 52.1243C403.912 52.1243 404.497 52.889 405.858 53.5396C404.447 54.0762 403.505 54.8619 400.723 54.8619C400.282 54.8694 399.845 54.7709 399.451 54.5746C399.805 54.0353 399.988 53.4024 399.976 52.758C399.99 52.4104 399.932 52.0637 399.806 51.7391C399.681 51.4146 399.489 51.119 399.244 50.8706C399 50.6223 398.707 50.4263 398.384 50.2946C398.06 50.1629 397.713 50.0985 397.364 50.105C396.156 50.105 395.071 50.8189 393.353 52.8046C393.54 52.0403 393.648 51.2588 393.675 50.4726V47.811H392.169V54.2197C392.005 54.4352 391.835 54.6422 391.669 54.8619H390.296C390.296 54.2071 390.296 53.7931 390.249 53.3748C390.151 51.5921 389.137 50.5823 387.644 50.5823C386.047 50.5823 384.855 51.8497 384.855 53.5776C384.855 55.3055 386.085 56.4292 387.98 56.4292H388.794C388.531 57.1812 387.522 57.6332 385.868 57.6332V58.9894C388.836 58.9894 390.108 57.9543 390.296 56.4292H395.071C396.327 56.4858 397.569 56.141 398.615 55.4449C398.886 55.7407 399.213 55.98 399.576 56.149C399.94 56.3179 400.335 56.4132 400.735 56.4292C403.899 56.4292 404.4 55.3351 406.011 54.6972C406.156 55.8377 406.931 56.4292 408.254 56.4292C409.997 56.4292 410.904 55.5167 410.904 54.0888V47.8195H409.404L409.386 53.8396Z" fill="#2B2B2B"/>
<path d="M414.327 47.8196H412.822V56.442H414.327V47.8196Z" fill="#2B2B2B"/>
<path d="M192.183 0.291591C191.487 0.348591 190.132 0.555201 190.067 0.605081C190.031 0.640701 189.845 0.683451 189.658 0.711951C189.472 0.740451 189.329 0.790321 189.35 0.818821C189.372 0.854441 189.329 0.861571 189.264 0.847321C189.099 0.804571 187.744 1.28193 186.948 1.66666C186.095 2.06564 185.069 2.65699 184.926 2.82086C184.861 2.89922 184.79 2.95622 184.775 2.94197C184.675 2.87785 182.796 4.42391 182.488 4.81575C182.387 4.95115 182.172 5.19338 182 5.36437C181.735 5.62796 181.706 5.67787 181.792 5.79185C181.871 5.89161 181.871 5.89872 181.792 5.82749C181.713 5.76337 181.642 5.80612 181.455 6.03407C181.319 6.19085 181.233 6.35468 181.262 6.39032C181.283 6.43307 181.269 6.44734 181.233 6.42596C181.125 6.36184 180.401 7.45903 179.899 8.44223C179.419 9.4041 178.859 10.943 178.702 11.7552C178.659 11.9903 178.594 12.2753 178.558 12.3964C178.472 12.6886 178.357 13.6005 178.3 14.4626C178.257 15.1679 178.365 17.0275 178.486 17.5903C178.745 18.8229 178.859 19.2718 178.953 19.4855C179.01 19.6209 179.089 19.8773 179.139 20.0554C179.182 20.2264 179.282 20.5186 179.361 20.6967C179.619 21.2524 180.2 22.4351 180.293 22.5847C181.197 24.0025 181.563 24.487 181.67 24.4229C181.713 24.4015 181.728 24.4015 181.699 24.4371C181.62 24.5155 181.778 24.772 181.871 24.715C181.914 24.6865 181.928 24.6936 181.907 24.7364C181.85 24.829 182.101 25.0641 182.179 24.9928C182.208 24.9573 182.215 24.9786 182.187 25.0285C182.151 25.0855 182.287 25.2779 182.559 25.5557C182.954 25.9618 183.004 25.9903 183.126 25.8977C183.248 25.798 183.248 25.798 183.155 25.9191C183.069 26.026 183.097 26.0758 183.406 26.3466C183.599 26.5104 183.793 26.6387 183.843 26.6387C183.893 26.6315 183.915 26.66 183.893 26.6957C183.872 26.7313 183.915 26.7812 184.001 26.8025C184.08 26.8239 184.137 26.8667 184.116 26.8951C184.094 26.9237 184.13 26.9664 184.18 26.9878C184.237 27.0092 184.51 27.1873 184.782 27.3867C185.449 27.8712 186.288 28.3344 186.389 28.2773C186.439 28.2417 186.446 28.256 186.41 28.3201C186.367 28.3913 186.381 28.4056 186.475 28.37C186.539 28.3415 186.582 28.3486 186.561 28.3842C186.525 28.4412 187.292 28.8188 187.665 28.9257C187.765 28.9542 187.859 29.0041 187.88 29.0254C187.952 29.1252 189.594 29.5954 190.533 29.7949C191.458 29.9873 191.58 29.9944 193.437 29.9873C195.266 29.9873 195.424 29.973 196.27 29.7949C197.202 29.5954 198.858 29.118 198.923 29.0325C198.944 29.0041 199.038 28.9542 199.138 28.9257C199.511 28.8188 200.278 28.4412 200.243 28.3842C200.221 28.3486 200.264 28.3415 200.329 28.37C200.422 28.4056 200.436 28.3913 200.393 28.3201C200.357 28.256 200.364 28.2417 200.415 28.2773C200.515 28.3344 201.354 27.8712 202.021 27.3867C202.293 27.1873 202.566 27.0092 202.623 26.9878C202.674 26.9664 202.709 26.9237 202.688 26.8951C202.666 26.8667 202.724 26.8239 202.803 26.8025C202.889 26.7812 202.932 26.7313 202.903 26.6886C202.881 26.6458 202.903 26.6244 202.953 26.6458C203.096 26.7028 204.696 25.1638 204.624 25.0428C204.588 24.9857 204.595 24.9644 204.638 24.9928C204.731 25.0499 204.968 24.8005 204.896 24.7221C204.86 24.6936 204.875 24.6865 204.925 24.715C205.025 24.772 205.183 24.5226 205.104 24.4371C205.075 24.4015 205.09 24.4015 205.133 24.4229C205.241 24.487 205.606 24.0025 206.51 22.5847C206.603 22.4351 207.184 21.2524 207.442 20.6967C207.521 20.5186 207.621 20.2264 207.664 20.0554C207.714 19.8773 207.794 19.6209 207.851 19.4855C207.944 19.2718 208.059 18.8229 208.317 17.5903C208.582 16.3435 208.546 13.401 208.245 12.3964C208.209 12.2753 208.145 11.9903 208.102 11.7552C207.944 10.943 207.385 9.4041 206.904 8.44223C206.402 7.45903 205.678 6.36184 205.57 6.42596C205.535 6.44734 205.52 6.43307 205.542 6.39032C205.57 6.35468 205.484 6.19085 205.348 6.03407C205.161 5.80612 205.09 5.76337 205.011 5.82749C204.932 5.89872 204.932 5.89161 205.011 5.78474C205.097 5.67787 205.068 5.62086 204.746 5.28598C204.545 5.08651 204.309 4.82291 204.222 4.71604C203.957 4.3669 202.207 2.95622 202.057 2.96335C202.028 2.96335 201.942 2.89922 201.878 2.82086C201.734 2.65699 200.708 2.06564 199.855 1.66666C199.06 1.28193 197.704 0.804571 197.539 0.847321C197.475 0.861571 197.432 0.854441 197.453 0.818821C197.475 0.790321 197.331 0.740451 197.145 0.711951C196.958 0.683451 196.779 0.640701 196.736 0.605081C196.492 0.419841 193.287 0.198971 192.183 0.291591Z" fill="#2B2B2B"/>
<path d="M167.228 16.5074C167.228 17.1985 167.465 19.1649 167.666 20.1623C168.383 23.7532 169.688 26.888 171.696 29.8163C175.245 35.0031 180.552 38.7008 186.661 40.2539C187.679 40.5176 188.439 40.66 189.673 40.8382C190.713 40.9878 194.685 41.0448 196.019 40.9308C199.052 40.6743 201.942 39.8835 204.982 38.4657C206.753 37.6392 209.787 35.6158 210.87 34.5328C210.999 34.4117 211.135 34.2977 211.185 34.2906C211.249 34.2764 211.271 35.5232 211.264 39.9832L211.249 45.7043H215.416H219.575V30.9562V16.2081H215.918C212.483 16.2081 212.261 16.2153 212.261 16.3293C212.254 16.4504 212.139 17.3054 212.088 17.5974C212.074 17.6758 212.024 17.9608 211.981 18.2245C211.372 21.8153 209.593 25.2779 207.005 27.8855C206.366 28.5267 205.291 29.4886 204.767 29.8733C202.193 31.7756 199.095 33.0081 195.84 33.4285C194.764 33.5639 192.469 33.5781 191.43 33.457C188.31 33.0865 185.406 32.0035 182.789 30.2224C180.738 28.826 178.486 26.4035 177.31 24.3303C177.031 23.8458 176.12 21.9791 176.12 21.9008C176.12 21.8651 176.056 21.7013 175.984 21.5303C175.532 20.5542 175.009 18.3099 174.865 16.7211L174.815 16.2081H171.022H167.228V16.5074Z" fill="#2B2B2B"/>
<path d="M149.517 45.6687V46.3456H155.397H161.277V45.6687V44.9919H155.397H149.517V45.6687Z" fill="#2B2B2B"/>
<path d="M232.554 50.1929V54.6816H227.069H221.583V51.2402L221.576 47.8062L220.68 48.7324C220.185 49.2382 219.675 49.7868 219.539 49.9436L219.295 50.2356L219.274 52.4373L219.252 54.6457L215.76 54.6671L212.261 54.6816V51.4753V48.2692H206.331C201.519 48.2692 200.321 48.2906 200.02 48.369C199.189 48.5898 198.608 49.0173 198.213 49.7085L197.991 50.086V52.3802V54.6816H194.119H190.247V50.2285V45.7756H189.063H187.88V50.2285V54.6885L188.052 55.0235C188.26 55.4366 188.748 55.8924 189.236 56.135C190.067 56.555 188.497 56.5336 212.712 56.5336H234.921V51.1191V45.7043H233.737H232.554V50.1929ZM209.823 52.3659V54.6816H205.162H200.501V52.3659V50.0504H205.162H209.823V52.3659Z" fill="#2B2B2B"/>
<path d="M237.431 51.1547V56.5336H238.614H239.797V51.1547V45.7756H238.614H237.431V51.1547Z" fill="#2B2B2B"/>
<path d="M148.943 48.3832C148.197 48.5827 147.573 49.0672 147.201 49.7227L147.007 50.0718V53.2992V56.5336H165.895C176.285 56.5336 184.804 56.5122 184.818 56.477C184.833 56.4481 184.833 54.5886 184.811 52.3446L184.775 48.2692H178.852C172.313 48.2692 172.456 48.2621 171.681 48.7181C171.294 48.9532 170.957 49.3023 170.685 49.7868C170.534 50.0504 170.527 50.1288 170.527 52.373V54.6816H165.902H161.277V51.4753V48.2692L155.311 48.2763C150.291 48.2763 149.273 48.2977 148.943 48.3832ZM158.824 52.3802L158.839 54.6816H154.178H149.517V52.3659V50.0504L154.163 50.0647L158.803 50.086L158.824 52.3802ZM182.344 52.3802L182.359 54.6816H177.698H173.037V52.3659V50.0504L177.683 50.0647L182.323 50.086L182.344 52.3802Z" fill="#2B2B2B"/>
<path d="M214.34 58.9206V59.5976H220.22H226.1V58.9206V58.2435H220.22H214.34V58.9206Z" fill="#2B2B2B"/>
<path d="M157.978 64.2784C157.978 67.0426 158.043 67.8404 158.322 68.6526C158.702 69.7213 159.52 70.4342 160.624 70.6404C160.847 70.6832 162.259 70.712 163.973 70.712H166.942V69.6075V68.5105L164.202 68.4891L161.456 68.4678L161.133 68.2893C160.904 68.161 160.76 68.0189 160.653 67.7907C160.488 67.4771 160.488 67.4418 160.488 64.5702V61.6633H159.233H157.978V64.2784Z" fill="#2B2B2B"/>
<path d="M168.326 62.8891C168.347 63.587 168.412 64.3351 168.476 64.613C168.72 65.6891 169.286 66.5013 170.097 66.9288C170.799 67.3061 171.251 67.3633 173.517 67.3633H175.539L175.468 67.5626C175.367 67.8549 174.994 68.1899 174.614 68.3395C174.342 68.4389 173.983 68.4678 172.341 68.4891L170.384 68.5105V69.6145V70.712H172.492C174.062 70.712 174.743 70.6832 175.166 70.6052C176.629 70.3273 177.583 69.4221 178.035 67.8907C178.135 67.5342 178.157 67.0571 178.185 64.5991L178.207 61.7349H176.916H175.618V63.4091V65.0907L173.618 65.0693C171.724 65.0479 171.603 65.0404 171.416 64.8983C170.943 64.5488 170.921 64.4847 170.9 63.0099L170.878 61.6633H169.58H168.283L168.326 62.8891Z" fill="#2B2B2B"/>
<path d="M149.71 61.813C148.685 62.0556 147.652 63.0527 147.215 64.2357C147.05 64.6846 147.05 64.7487 147.021 67.6983L147 70.7121H148.255H149.517V69.964V69.2159H151.776H154.034V69.964V70.7121H155.289H156.544V66.2235V61.735L153.267 61.7419C151.46 61.7489 149.861 61.7777 149.71 61.813ZM154.034 65.4754V67.0785H151.776H149.517V66.2374C149.517 64.9694 149.789 64.3923 150.549 64.0434C150.901 63.8793 150.987 63.8724 152.478 63.8724H154.034V65.4754Z" fill="#2B2B2B"/>
<path d="M182.337 61.813C181.312 62.0556 180.279 63.0527 179.842 64.2357C179.677 64.6846 179.677 64.7487 179.648 67.6983L179.627 70.7121H180.882H182.144V69.964V69.2159H184.403H186.661V69.964V70.7121H187.916H189.171V66.2235V61.735L185.894 61.7419C184.087 61.7489 182.488 61.7777 182.337 61.813ZM186.661 65.4754V67.0785H184.403H182.144V66.2374C182.144 64.9694 182.416 64.3923 183.176 64.0434C183.528 63.8793 183.614 63.8724 185.105 63.8724H186.661V65.4754Z" fill="#2B2B2B"/>
<path d="M190.533 66.2235V70.7121H191.824H193.114V67.2922V63.8724H193.889C194.764 63.8724 195.101 63.9435 195.409 64.1999C195.81 64.5419 195.84 64.7915 195.84 67.9121V70.7121H197.101H198.356L198.335 67.6267C198.313 65.0052 198.292 64.4992 198.191 64.1999L198.069 63.858L198.944 63.8863C199.934 63.9221 200.371 64.0717 200.68 64.4709C200.981 64.8695 201.002 65.119 201.002 67.9831V70.7121H202.264H203.519L203.498 67.6625C203.476 64.6488 203.476 64.613 203.304 64.193C202.967 63.345 202.2 62.4045 201.59 62.0983C200.88 61.735 200.823 61.735 195.502 61.735H190.533V66.2235Z" fill="#2B2B2B"/>
<path d="M207.65 61.813C206.624 62.0556 205.592 63.0527 205.154 64.2357C204.989 64.6846 204.989 64.7487 204.961 67.6983L204.939 70.7121H206.194H207.456V69.964V69.2159H209.715H211.974V69.964V70.7121H213.229H214.484V66.2235V61.735L211.206 61.7419C209.399 61.7489 207.801 61.7777 207.65 61.813ZM211.974 65.4754V67.0785H209.715H207.456V66.2374C207.456 64.9694 207.729 64.3923 208.489 64.0434C208.84 63.8793 208.926 63.8724 210.418 63.8724H211.974V65.4754Z" fill="#2B2B2B"/>
<path d="M215.846 66.2235V70.7121H217.137H218.427V67.2922V63.8724H219.202C220.077 63.8724 220.414 63.9435 220.722 64.1999C221.124 64.5419 221.153 64.7915 221.153 67.9121V70.7121H222.414H223.669L223.648 67.6267C223.626 65.0052 223.605 64.4992 223.504 64.1999L223.382 63.858L224.257 63.8863C225.247 63.9221 225.684 64.0717 225.993 64.4709C226.294 64.8695 226.315 65.119 226.315 67.9831V70.7121H227.577H228.832L228.811 67.6625C228.789 64.6488 228.789 64.613 228.617 64.193C228.28 63.345 227.513 62.4045 226.903 62.0983C226.193 61.735 226.136 61.735 220.815 61.735H215.846V66.2235Z" fill="#2B2B2B"/>
<path d="M230.259 66.2235V70.7121H231.55H232.841V69.964V69.2159H235.063H237.287V69.964V70.7121H238.548H239.804L239.782 67.6983C239.753 64.2496 239.761 64.2854 239.065 63.2525C238.67 62.6754 238.204 62.2832 237.537 61.9701L237.107 61.7702L233.687 61.7489L230.259 61.7275V66.2235ZM236.074 63.9504C236.491 64.0786 236.849 64.4137 237.079 64.8983C237.272 65.3044 237.287 65.3899 237.287 66.2021V67.0785H235.063H232.841V65.4754V63.8724H234.318C235.222 63.8724 235.91 63.9007 236.074 63.9504Z" fill="#2B2B2B"/>
<mask id="mask0_105_544" style="mask-type:luminance" maskUnits="userSpaceOnUse" x="0" y="0" width="107" height="72">
<path d="M107 0H0V72H107V0Z" fill="white"/>
</mask>
<g mask="url(#mask0_105_544)">
<path d="M76.2861 40.8816V40.9602C76.2861 46.1537 72.5238 49.97 66.4098 49.97C61.472 49.97 58.0623 48.0027 55.7112 45.2094L59.8655 41.2352C61.7464 43.3603 63.7061 44.54 66.4886 44.54C68.7615 44.54 70.3684 43.2421 70.3684 41.1962C70.3382 41.1419 70.8117 37.6163 64.9992 37.6163H62.4911L61.5501 33.7599L70.3506 24.8727L66.824 27.1508H57.3181V21.9579H75.8547V26.5216L68.9184 33.1703C72.6414 33.8 76.2861 35.7668 76.2861 40.8816ZM59.0815 9.3645C59.0815 6.87109 60.8621 4.86422 63.3609 4.86422H66.1769L65.4397 5.23359C65.4732 12.0678 65.3049 12.9286 65.7395 13.9277L63.3922 13.9271C60.8933 13.9271 59.0815 11.8888 59.0815 9.396V9.3645ZM63.3609 15.0721H65.8614V14.168C66.0437 14.4858 66.289 14.7326 66.6509 14.9051C67.4463 15.2848 66.8682 15.0461 89.6783 15.1166V3.71976H88.4753V13.9087C88.4753 13.9087 67.6183 13.9895 67.2219 13.8105C66.8779 13.6549 66.7528 13.299 66.6956 12.9199C66.6045 12.3043 66.66 12.2929 66.6433 3.71976H63.3922C60.0656 3.71976 57.8008 6.36937 57.8008 9.396V9.4274C57.8008 12.4534 60.0343 15.0721 63.3609 15.0721ZM98.5452 2.5113H95.9093C95.9665 1.63479 95.5631 0 97.3389 0H98.1876V0.8418C97.3658 0.90309 96.8929 0.64057 96.8929 1.30067V1.58H98.5452V2.5113ZM101.592 15.2397C101.271 15.2397 100.945 15.1947 100.614 15.1036L100.93 13.9412C101.474 14.0969 102.17 14.1061 102.457 13.6169C102.792 13.0376 102.672 12.8337 102.69 3.71976H103.893C103.858 12.2273 103.976 12.4648 103.78 13.4509C103.549 14.6046 102.854 15.2397 101.592 15.2397ZM66.6433 2.5113H65.4397V1.30338H66.6433V2.5113ZM93.1236 6.67908C93.6882 5.57313 94.8734 4.95751 96.0851 4.9445V4.94233H98.0291L97.3421 5.28675V10.7107C96.3952 10.6825 95.7297 10.8013 94.8529 10.5214C93.6558 10.1428 92.8448 9.2164 92.8448 7.87181C92.8448 7.43952 92.9375 7.0414 93.1236 6.67908ZM93.1236 10.9597C94.6901 12.0824 96.826 11.8969 96.9377 11.9181L97.3421 11.066C97.2768 11.8921 97.568 13.0463 96.8007 13.6245C96.152 14.1121 94.9953 14.0964 94.2813 13.9261C93.9858 13.8561 93.6472 13.7351 93.2659 13.5643L92.8901 14.7266C93.6526 15.0092 94.3816 15.2397 95.191 15.2397C96.3644 15.2397 97.2165 14.9604 97.7481 14.4023C98.2793 13.8431 98.5452 13.0908 98.5452 12.1448V3.71976C97.0644 3.76641 95.9411 3.56952 94.5898 4.03706C90.9687 5.28946 90.8965 9.365 93.1236 10.9597ZM64.2367 2.5113H63.0331V1.30338H64.2367V2.5113ZM51.7828 3.70674H53.0252V15.0488H52.0082L44.0063 4.84686L44.7138 6.50009V15.0488H43.4708V3.70674H44.6653L52.3064 13.4645L51.7828 12.0727V3.70674ZM4.85807 15.1296L0 3.70674H1.42038C1.49263 3.88248 5.36442 13.2958 5.757 14.2504L5.63405 13.004L9.47402 3.70674H10.8453L5.98779 15.1296H4.85807ZM26.3864 3.70674H27.6612V15.0483H26.3864V3.70674ZM40.0606 9.4101C40.0606 11.9864 38.2213 14.06 35.6388 14.06C33.0564 14.06 31.1841 11.9539 31.1841 9.3781V9.345C31.1841 6.76912 33.0245 4.69553 35.6064 4.69553C38.1889 4.69553 40.0606 6.80166 40.0606 9.3781V9.4101ZM35.6388 3.51257C32.2011 3.51257 29.8608 6.25059 29.8608 9.3781V9.4101C29.8608 12.537 32.1688 15.243 35.6064 15.243C39.0441 15.243 41.3845 12.505 41.3845 9.3781V9.345C41.3845 6.21859 39.0765 3.51257 35.6388 3.51257ZM24.2828 11.9702V12.0022C24.2828 13.9461 22.6688 15.2105 20.4256 15.2105C18.6342 15.2105 17.1658 14.6111 15.8102 13.3956L16.6007 12.4562C17.779 13.5252 18.9087 14.0595 20.4747 14.0595C21.9916 14.0595 22.9919 13.2502 22.9919 12.1318V12.0998C22.9919 8.93437 16.2621 11.0226 16.2621 6.67149V6.63949C16.2621 4.85717 17.8275 3.54457 19.9742 3.54457C21.62 3.54457 22.7983 4.01483 23.9442 4.93853L23.2022 5.92623C20.6407 3.83041 17.5368 4.63316 17.5368 6.52613V6.55867C17.5368 7.62774 18.1176 8.22708 20.6035 8.76189C23.1213 9.313 24.2828 10.2367 24.2828 11.9702ZM13.8522 15.0488H12.5774V3.70729H13.8522V15.0488ZM88.0552 16.324H89.2588V17.5319H88.0552V16.324ZM85.6485 16.324H86.8521V17.5319H85.6485V16.324ZM10.0893 44.2645H20.5496V49.4981H0.248593V44.6979C10.3924 36.0391 14.1223 34.3468 14.1223 30.5739C14.1223 28.2524 12.5936 26.9935 10.4382 26.9935C8.32165 26.9935 6.87162 28.1732 4.83381 30.691L0.60126 27.269C3.30558 23.5704 5.93171 21.5636 10.8302 21.5636C16.5128 21.5636 20.2751 24.908 20.2751 30.0624V30.1405C20.2751 36.6037 15.4106 38.687 7.06898 45.4486L5.90421 46.3511L10.0893 44.2645ZM100.691 35.8064C100.691 40.5274 97.3205 44.3833 92.4603 44.3833C87.6006 44.3833 84.1521 40.4487 84.1521 35.7272V35.6485C84.1521 30.9275 87.523 27.0721 92.3821 27.0721C97.2413 27.0721 100.691 31.0067 100.691 35.7272V35.8064ZM92.4603 21.4854C83.9957 21.4854 77.8424 27.8982 77.8424 35.7272V35.8064C77.8424 43.6359 83.9165 49.97 92.3821 49.97C100.848 49.97 107 43.5567 107 35.7272V35.6485C107 27.8196 100.925 21.4854 92.4603 21.4854Z" fill="#2B2B2B"/>
<path d="M36.9481 19.6738L38.3378 21.0125L37.0042 22.407L35.6151 21.0683" fill="#2B2B2B"/>
<path d="M40.1281 21.0683L41.5166 22.407L42.8502 21.0125L41.4611 19.6738" fill="#2B2B2B"/>
<path d="M38.1716 22.8262L39.2539 23.8682L40.2914 22.7823L39.2102 21.7404" fill="#2B2B2B"/>
<path d="M42.1378 23.4224L43.2195 24.4649L44.2571 23.379L43.1753 22.3365" fill="#2B2B2B"/>
<path d="M36.403 24.4865L37.4847 25.529L38.5222 24.4431L37.4415 23.4006" fill="#2B2B2B"/>
<path d="M40.0326 24.6129L41.1138 25.6554L42.1518 24.5695L41.0701 23.527" fill="#2B2B2B"/>
<path d="M38.6128 25.862L39.3737 26.5953L40.1038 25.8311L39.3429 25.0978" fill="#2B2B2B"/>
<path d="M41.4832 26.4375L42.244 27.1708L42.9747 26.4066L42.2138 25.6738" fill="#2B2B2B"/>
<path d="M47.752 20.627L50.1123 20.1917L50.5442 22.5615L48.1839 22.9968L47.752 20.627Z" fill="#2B2B2B"/>
<path d="M44.6716 21.6201L46.5653 21.2714L46.9114 23.1729L45.0178 23.5216L44.6716 21.6201Z" fill="#2B2B2B"/>
<path d="M48.3322 24.2697L50.2257 23.9204L50.5723 25.8218L48.6788 26.1711L48.3322 24.2697Z" fill="#2B2B2B"/>
<path d="M45.7207 24.5483L47.1953 24.2765L47.4648 25.7565L45.9903 26.0283L45.7207 24.5483Z" fill="#2B2B2B"/>
<path d="M48.5895 27.3607L50.064 27.0889L50.3337 28.5694L48.8591 28.8412L48.5895 27.3607Z" fill="#2B2B2B"/>
<path d="M43.5114 25.1503L44.9864 24.8784L45.2561 26.3589L43.781 26.6308L43.5114 25.1503Z" fill="#2B2B2B"/>
<path d="M46.1877 27.0895L47.6623 26.8178L47.932 28.2983L46.4574 28.5701L46.1877 27.0895Z" fill="#2B2B2B"/>
<path d="M44.3085 27.2684L45.3459 27.077L45.5358 28.1184L44.4983 28.3098L44.3085 27.2684Z" fill="#2B2B2B"/>
<path d="M46.3015 29.4214L47.3386 29.2308L47.5277 30.2717L46.4907 30.4624L46.3015 29.4214Z" fill="#2B2B2B"/>
<path d="M54.7724 28.3901L53.7408 30.5662L55.9086 31.6011L56.9391 29.4256" fill="#2B2B2B"/>
<path d="M51.696 27.3851L50.8688 29.1306L52.6073 29.961L53.4345 28.2155" fill="#2B2B2B"/>
<path d="M53.1185 31.6847L52.2913 33.4307L54.0303 34.2605L54.8575 32.5151" fill="#2B2B2B"/>
<path d="M50.8401 30.3754L50.1963 31.7346L51.5503 32.3812L52.1947 31.0219" fill="#2B2B2B"/>
<path d="M51.5277 34.3419L50.8833 35.7012L52.2368 36.3477L52.8817 34.9885" fill="#2B2B2B"/>
<path d="M48.6973 29.5661L48.0529 30.9253L49.4069 31.5719L50.0513 30.2126" fill="#2B2B2B"/>
<path d="M49.7385 32.7109L49.0941 34.0701L50.4476 34.7167L51.0926 33.3574" fill="#2B2B2B"/>
<path d="M48.11 31.7525L47.6565 32.7087L48.6088 33.1633L49.0623 32.2076" fill="#2B2B2B"/>
<path d="M48.0166 35.6212L48.4689 34.6651L49.4208 35.1208L48.9685 36.0768L48.0166 35.6212Z" fill="#2B2B2B"/>
<path d="M55.9398 38.8091L53.8357 39.9676L54.9902 42.0803L57.0944 40.9217" fill="#2B2B2B"/>
<path d="M54.0315 36.1871L52.3436 37.1168L53.2695 38.8113L54.9574 37.8816" fill="#2B2B2B"/>
<path d="M52.6796 40.5095L50.9912 41.4391L51.9176 43.1341L53.6055 42.2045" fill="#2B2B2B"/>
<path d="M51.5947 38.1094L50.2805 38.8335L51.001 40.1526L52.3162 39.429" fill="#2B2B2B"/>
<path d="M49.8404 41.7299L48.5258 42.454L49.2467 43.7731L50.5614 43.0495" fill="#2B2B2B"/>
<path d="M50.3285 36.1947L49.0138 36.9183L49.7348 38.2385L51.05 37.5144" fill="#2B2B2B"/>
<path d="M49.34 39.3563L48.0253 40.0804L48.7462 41.3995L50.0609 40.676" fill="#2B2B2B"/>
<path d="M48.5775 37.6229L47.6527 38.1322L48.1601 39.0602L49.0844 38.5514" fill="#2B2B2B"/>
<path d="M47.1707 40.1992L46.2458 40.7085L46.7528 41.6366L47.6776 41.1278" fill="#2B2B2B"/>
<path d="M48.1362 50.0319L48.43 47.6402L50.812 47.9362L50.5183 50.3279L48.1362 50.0319Z" fill="#2B2B2B"/>
<path d="M48.6503 46.3793L48.8866 44.4608L50.7971 44.699L50.5608 46.6174L48.6503 46.3793Z" fill="#2B2B2B"/>
<path d="M45.0336 49.0906L45.27 47.1722L47.181 47.4104L46.9446 49.3289L45.0336 49.0906Z" fill="#2B2B2B"/>
<path d="M46.0292 46.1399L46.2128 44.6461L47.7006 44.8311L47.517 46.3249L46.0292 46.1399Z" fill="#2B2B2B"/>
<path d="M42.4951 48.0441L42.6787 46.5503L44.1665 46.7353L43.9829 48.2291L42.4951 48.0441Z" fill="#2B2B2B"/>
<path d="M46.1167 43.8389L46.3008 42.3447L47.7891 42.5302L47.605 44.0245L46.1167 43.8389Z" fill="#2B2B2B"/>
<path d="M43.4728 45.8209L43.6568 44.3272L45.1451 44.5127L44.961 46.0065L43.4728 45.8209Z" fill="#2B2B2B"/>
<path d="M44.3621 43.5834L44.4913 42.5326L45.5376 42.6628L45.4083 43.7136L44.3621 43.5834Z" fill="#2B2B2B"/>
<path d="M41.7168 44.8445L41.846 43.7937L42.8927 43.9239L42.7636 44.9747L41.7168 44.8445Z" fill="#2B2B2B"/>
<path d="M41.3344 52.3424L39.5753 50.7028L37.9425 52.4688L39.7015 54.1079" fill="#2B2B2B"/>
<path d="M41.0103 18.5929L39.2512 16.9532L37.6184 18.7192L39.3774 20.3584" fill="#2B2B2B"/>
<path d="M43.2115 49.6972L41.8003 48.3818L40.4905 49.7986L41.9017 51.1134" fill="#2B2B2B"/>
<path d="M38.6991 49.7725L37.2874 48.4572L35.9775 49.874L37.3887 51.1887" fill="#2B2B2B"/>
<path d="M40.6253 47.9821L39.5263 46.9581L38.5066 48.0608L39.605 49.0848" fill="#2B2B2B"/>
<path d="M36.6499 47.4521L35.5515 46.4281L34.5317 47.5308L35.6307 48.5554" fill="#2B2B2B"/>
<path d="M42.0364 46.1721L40.9374 45.1481L39.9177 46.2508L41.0162 47.2748" fill="#2B2B2B"/>
<path d="M38.7358 46.2269L37.6368 45.2029L36.6171 46.3056L37.7155 47.3296" fill="#2B2B2B"/>
<path d="M40.134 44.9544L39.3612 44.2336L38.644 45.0098L39.4168 45.7301" fill="#2B2B2B"/>
<path d="M37.255 44.4261L36.4823 43.7058L35.7645 44.4814L36.5373 45.2017" fill="#2B2B2B"/>
<path d="M28.2583 48.4516L30.6117 47.9772L31.0824 50.3395L28.729 50.814L28.2583 48.4516Z" fill="#2B2B2B"/>
<path d="M31.8807 47.7806L33.7683 47.4001L34.146 49.2955L32.2584 49.6761L31.8807 47.7806Z" fill="#2B2B2B"/>
<path d="M28.1792 45.1908L30.0667 44.8099L30.4447 46.7053L28.5572 47.0861L28.1792 45.1908Z" fill="#2B2B2B"/>
<path d="M31.2845 45.2066L32.7544 44.9103L33.0485 46.3861L31.5786 46.6824L31.2845 45.2066Z" fill="#2B2B2B"/>
<path d="M33.4834 44.5674L34.9533 44.2711L35.2474 45.7474L33.7776 46.0437L33.4834 44.5674Z" fill="#2B2B2B"/>
<path d="M30.7749 42.6732L32.2448 42.3769L32.5388 43.8527L31.069 44.149L30.7749 42.6732Z" fill="#2B2B2B"/>
<path d="M33.1738 42.8153L34.2081 42.6072L34.4146 43.6454L33.3803 43.8535L33.1738 42.8153Z" fill="#2B2B2B"/>
<path d="M31.1471 40.6946L32.1807 40.4861L32.3878 41.5241L31.3541 41.7327L31.1471 40.6946Z" fill="#2B2B2B"/>
<path d="M23.9361 42.6948L24.931 40.5025L22.7465 39.5034L21.7516 41.6957" fill="#2B2B2B"/>
<path d="M27.0282 43.6489L27.8263 41.8899L26.0743 41.0887L25.2756 42.8477" fill="#2B2B2B"/>
<path d="M25.5339 39.3737L26.3325 37.6147L24.5799 36.813L23.7819 38.5726" fill="#2B2B2B"/>
<path d="M26.4689 40.0226L27.09 38.6526L28.4535 39.2781L27.8323 40.648L26.4689 40.0226Z" fill="#2B2B2B"/>
<path d="M29.6597 44.0692L30.2815 42.6997L28.9172 42.0759L28.2954 43.4455" fill="#2B2B2B"/>
<path d="M25.7195 36.0664L26.3409 34.6966L27.7042 35.3223L27.0828 36.6921L25.7195 36.0664Z" fill="#2B2B2B"/>
<path d="M28.6277 40.7939L29.2491 39.4241L30.6124 40.0498L29.991 41.4196L28.6277 40.7939Z" fill="#2B2B2B"/>
<path d="M27.5336 37.6697L28.1554 36.3001L29.5186 36.9263L28.8967 38.2959L27.5336 37.6697Z" fill="#2B2B2B"/>
<path d="M30.5413 39.2219L30.9786 38.2586L30.0188 37.8192L29.5814 38.7831" fill="#2B2B2B"/>
<path d="M30.1326 36.3124L30.5699 35.3486L29.6101 34.9098L29.1727 35.8736" fill="#2B2B2B"/>
<path d="M22.5955 32.2965L24.6808 31.1032L23.4912 29.0101L21.4065 30.2034" fill="#2B2B2B"/>
<path d="M24.5476 34.887L26.2203 33.9297L25.2658 32.2504L23.5936 33.2083" fill="#2B2B2B"/>
<path d="M25.8283 30.5424L27.5011 29.5851L26.5466 27.9053L24.8744 28.8631" fill="#2B2B2B"/>
<path d="M26.9527 32.9241L28.2544 32.1783L27.5119 30.8711L26.2096 31.6163" fill="#2B2B2B"/>
<path d="M28.647 29.2754L29.9488 28.5296L29.2062 27.2224L27.9039 27.9677" fill="#2B2B2B"/>
<path d="M28.2495 34.8176L29.5523 34.0723L28.8098 32.7646L27.507 33.5104" fill="#2B2B2B"/>
<path d="M29.1861 31.6402L30.4884 30.8949L29.7459 29.5872L28.4436 30.333" fill="#2B2B2B"/>
<path d="M29.9772 33.3607L30.8934 32.8362L30.3709 31.9168L29.4547 32.4408" fill="#2B2B2B"/>
<path d="M31.341 30.761L32.2577 30.2365L31.7352 29.3171L30.8185 29.8416" fill="#2B2B2B"/>
<path d="M27.5707 23.0794L27.8253 20.6837L30.2114 20.9403L29.9567 23.336L27.5707 23.0794Z" fill="#2B2B2B"/>
<path d="M27.6421 26.3251L27.8465 24.4035L29.7612 24.6096L29.5568 26.5312L27.6421 26.3251Z" fill="#2B2B2B"/>
<path d="M31.2124 23.554L31.4169 21.6319L33.3316 21.838L33.1271 23.7601L31.2124 23.554Z" fill="#2B2B2B"/>
<path d="M30.738 26.1473L30.8974 24.6507L32.388 24.8113L32.2286 26.3079L30.738 26.1473Z" fill="#2B2B2B"/>
<path d="M34.2358 24.1783L34.3946 22.6817L35.8852 22.8417L35.7265 24.3383L34.2358 24.1783Z" fill="#2B2B2B"/>
<path d="M30.6848 28.4443L30.8442 26.9477L32.3348 27.1083L32.1754 28.6049L30.6848 28.4443Z" fill="#2B2B2B"/>
<path d="M33.2974 26.4164L33.4567 24.9198L34.9473 25.0804L34.7879 26.577L33.2974 26.4164Z" fill="#2B2B2B"/>
<path d="M32.9348 28.277L33.0468 27.2242L34.0956 27.3371L33.9836 28.3899L32.9348 28.277Z" fill="#2B2B2B"/>
<path d="M35.5586 26.9692L35.67 25.9164L36.7193 26.0287L36.608 27.0815L35.5586 26.9692Z" fill="#2B2B2B"/>
<path d="M46.8827 37.0105C45.6262 36.2826 43.878 36.0711 42.0666 36.7382C41.275 37.0393 40.4823 37.5648 39.8137 38.0796C39.3925 35.5113 39.598 33.1275 39.6961 31.9565C39.6967 31.9499 39.7042 31.9467 39.7101 31.9505C40.6144 32.5227 40.361 34.1217 40.1712 34.5789C40.1674 34.5882 40.1809 34.5941 40.1874 34.5865C41.3144 33.2479 40.7638 31.7699 40.5325 31.3956C40.4904 31.3278 40.7455 31.5334 40.9547 31.803C41.7426 32.8118 41.3786 33.9449 41.4665 33.9183C41.4686 33.9178 41.4713 33.9183 41.4724 33.9156C41.996 32.8823 41.8278 31.5719 40.7509 30.6254C40.7018 30.5836 40.8938 30.6466 40.9547 30.6683C41.873 30.9888 42.3519 31.9402 42.3454 32.7885C42.3454 32.9751 42.9656 31.1949 41.4665 30.2902C41.1861 30.1215 40.8981 30.0288 40.7099 30.006C40.5632 29.9903 41.5128 29.8465 42.1799 30.3011C42.5805 30.5728 42.6857 30.9015 42.6754 30.8093C42.559 29.6176 41.1623 29.1468 40.3157 29.5043C40.2262 29.5493 40.649 28.919 41.4665 28.9678C41.6239 28.9771 41.7695 29.0112 41.886 29.0671C41.8941 29.0709 41.9016 29.0601 41.8957 29.053C41.2783 28.343 40.2623 28.3284 39.7231 29.1495C39.7193 29.155 39.7112 29.155 39.708 29.1495C39.5036 28.7813 39.3327 28.3099 39.2588 27.8652C39.241 27.7512 39.2032 28.4157 38.7934 29.1495C38.7902 29.155 38.7826 29.155 38.7789 29.1495C38.238 28.3262 37.2231 28.3425 36.6062 29.053C36.5998 29.0601 36.6073 29.0709 36.6159 29.0671C37.0279 28.8702 37.8061 28.9282 38.1959 29.4907C38.2008 29.4983 38.1938 29.5081 38.1851 29.5043C37.3126 29.1354 35.9419 29.6361 35.8259 30.8093C35.8254 30.819 35.8383 30.8245 35.8432 30.8158C35.882 30.7426 35.978 30.5864 36.1576 30.428C36.8554 29.8096 37.9527 29.9886 37.7915 30.006C37.3628 30.0591 36.4827 30.4432 36.1576 31.3208C35.8917 32.0378 36.1479 32.9821 36.1576 32.7484C36.1662 31.9505 36.6208 30.882 37.743 30.6097C37.7516 30.6075 37.7581 30.6194 37.7511 30.6254C36.0071 32.1674 37.0619 34.061 37.0457 33.9113C36.9918 33.3 36.947 32.2087 37.9549 31.3848C37.9624 31.3788 37.9743 31.3869 37.9689 31.3956C37.7376 31.7699 37.1875 33.2479 38.314 34.5865C38.3205 34.5941 38.334 34.5882 38.3302 34.5789C38.1409 34.1217 37.8875 32.5227 38.7913 31.9505C38.7972 31.9467 38.8047 31.9499 38.8053 31.9565C38.904 33.1275 39.1094 35.5113 38.6877 38.0796C37.2555 36.9785 35.8454 36.2566 34.0292 36.3369C33.1157 36.377 32.2491 36.6444 31.6187 37.0105C31.5961 37.0235 31.6128 37.0566 31.6371 37.049C34.2788 36.1996 36.5652 37.2302 38.691 39.0092C37.6173 39.9503 36.6429 40.9353 36.0767 41.2325C35.9446 41.0508 35.7154 40.9461 35.4646 41.0009C34.9923 41.1056 34.8796 41.7006 35.1357 41.9566C36.0637 42.8879 37.5149 41.04 39.2507 39.4952C40.9213 40.9803 42.4393 42.8874 43.3657 41.9566C43.4396 41.8823 43.5253 41.6372 43.4811 41.4424C43.3695 40.9565 42.7272 40.816 42.4247 41.2325C41.8801 40.9565 40.924 39.9845 39.8104 39.0092C41.9512 37.2145 44.2128 36.2126 46.8638 37.049C46.8886 37.0566 46.9053 37.0235 46.8827 37.0105Z" fill="#2B2B2B"/>
<path d="M38.4294 62.4343H39.118V56.2314H38.4294V62.4343ZM20.3857 61.7427L19.3099 59.0899C20.4229 58.1423 21.8039 58.3164 22.6926 59.0899L21.6168 61.7427H20.3857ZM16.5894 61.7427C16.048 61.7265 15.6673 61.7943 15.1647 61.6354C13.3037 61.0441 13.8096 58.4417 15.8921 58.4417H16.5894V61.7427ZM35.7348 61.7427C34.6256 61.7086 33.6263 61.9396 33.1178 61.0517C33.2181 60.6081 33.1631 60.2099 33.1782 58.1738H32.4896V60.5158C32.4896 62.2347 30.4275 62.123 29.9411 61.0908C29.7459 60.6758 29.8651 60.5023 29.8295 58.1738H29.1403V60.5679C29.1403 61.349 28.6545 61.7427 27.9783 61.7427H26.6442V58.1738H25.9556V61.7427H22.3399L23.5451 58.848C22.8614 58.247 21.9096 57.6813 20.9972 57.6813C20.0702 57.6813 19.1368 58.2226 18.4487 58.848L19.6625 61.7427H17.278V57.742H16.1763C14.619 57.742 13.3264 58.6424 13.3264 60.1183C13.3264 62.7451 16.5301 62.4213 16.5894 62.4343C16.5786 62.5195 16.6751 63.1128 16.2793 63.4112C15.9094 63.69 15.2488 63.6818 14.8374 63.5842C14.668 63.5435 14.4745 63.4746 14.2566 63.3764L14.0414 64.042C14.4782 64.2036 14.8951 64.3359 15.3583 64.3359C16.6708 64.3359 17.278 63.6775 17.278 62.5639V62.4343C28.517 62.3633 28.1848 62.597 28.8696 62.2184C29.1306 62.0747 29.3415 61.8816 29.5022 61.6391C29.6688 61.9158 29.8953 62.1322 30.1822 62.2879C30.7845 62.6128 31.7034 62.5824 32.2615 62.3047C32.5511 62.1609 32.7738 61.9391 32.9285 61.6391C33.1944 62.0958 33.6069 62.3893 34.4352 62.4262V62.4343H36.4234V56.2314H35.7348V61.7427ZM97.5271 61.4363C96.9177 62.8688 94.82 62.91 94.2128 61.4146C94.0344 60.9758 94.0344 60.4556 94.2128 60.0103C94.9478 58.1781 97.6694 58.7042 97.6694 60.7149C97.6694 60.9736 97.622 61.2145 97.5271 61.4363ZM90.8469 61.4363C90.32 62.6675 88.7325 62.8498 87.9026 61.9895C87.2215 61.2812 87.2415 60.1275 87.8988 59.4316C88.4343 58.8594 89.2599 58.7672 89.8913 59.0291C90.8868 59.4468 91.2184 60.5679 90.8469 61.4363ZM74.0989 61.7427C73.5721 61.7265 73.1903 61.7959 72.691 61.631C70.8775 61.0317 71.31 58.433 73.4184 58.433H74.0989V61.7427ZM100.51 61.7427H98.1429C98.8816 60.1118 97.7341 58.1998 95.8441 58.1998C94.1034 58.1998 92.8858 59.9941 93.597 61.7427H91.4621C92.182 60.1595 91.0911 58.1998 89.1639 58.1998C87.4221 58.1998 86.2056 59.9946 86.9168 61.7427H84.7302V56.2314H84.0416V61.7427H81.8468C81.8091 61.0327 82.007 59.9821 81.416 59.3188C81.0153 58.8642 80.5694 58.7227 79.9611 58.7227H76.9138L78.2102 56.2314H77.4611L76.1389 58.714C76.1815 58.9895 76.2646 59.2049 76.449 59.4137C79.8932 59.443 80.118 59.341 80.5251 59.5135C80.8444 59.6464 81.039 59.8888 81.1065 60.1834C81.1884 60.5381 81.1469 60.8049 81.1582 61.7427H74.7876V57.742H73.7026C71.8778 57.742 70.8618 58.8339 70.8618 60.0922C70.8618 61.669 72.1226 62.4343 73.7026 62.4343H87.3644C88.3777 63.5321 90.0833 63.4388 91.0146 62.4343H94.0446C95.0546 63.5289 96.7586 63.4426 97.6953 62.4343H101.199V56.2314H100.51V61.7427ZM103.204 62.4343H103.893V56.2314H103.204V62.4343ZM52.4622 63.9563H53.1697V63.2463H52.4622V63.9563ZM59.1952 61.7427L58.1189 59.0899C59.2233 58.1494 60.6021 58.3083 61.5021 59.0899L60.4263 61.7427H59.1952ZM64.076 61.7427H61.1495L62.3542 58.848C61.6688 58.2437 60.7138 57.6813 59.8062 57.6813C58.876 57.6813 57.9453 58.2253 57.2577 58.848L58.4716 61.7427H55.9069V57.742H55.2178V62.5813C55.2178 63.1926 55.1735 63.6444 54.5637 63.6444C54.4218 63.6444 54.3469 63.6319 54.211 63.5923L54.0303 64.2584C54.6057 64.4168 55.2852 64.3636 55.6227 63.8646C55.928 63.4128 55.8918 62.789 55.9069 62.4343H64.7651V56.2314H64.076V61.7427ZM11.7944 58.3468C11.0287 57.5061 10.1421 57.8109 9.84017 57.742V58.433C10.3427 58.4526 10.5752 58.3772 10.916 58.541C11.2028 58.6798 11.4056 58.9038 11.4886 59.2195C11.5819 59.5824 11.5296 59.8655 11.5447 61.7427H8.31626V62.4343H12.2333C12.2048 59.8145 12.3045 59.5368 12.1255 58.9516C12.0538 58.7156 11.9432 58.5139 11.7944 58.3468ZM49.9445 63.9644H50.652V63.2544H49.9445V63.9644ZM45.7572 61.7427C45.2315 61.7265 44.8491 61.7959 44.3492 61.631C42.5336 61.0311 42.9709 58.433 45.0767 58.433H45.7572V61.7427ZM53.1605 57.742H52.4719V61.7427H49.8722V57.742H49.1836V61.7427H46.4458V57.742C45.5798 57.7691 44.2878 57.5657 43.295 58.4113C41.8876 59.6106 42.2505 62.4343 45.3614 62.4343H53.1605V57.742ZM48.7382 63.9644H49.4457V63.2544H48.7382V63.9644ZM2.71618 56.2314H2.00869V56.9414H2.71618V56.2314ZM73.578 56.2314H72.8705V56.9414H73.578V56.2314ZM46.4426 56.2314H45.7351V56.9414H46.4426V56.2314ZM6.77886 63.9644H7.48636V63.2544H6.77886V63.9644ZM45.2363 56.2314H44.5288V56.9414H45.2363V56.2314ZM3.92248 56.2314H3.21498V56.9414H3.92248V56.2314ZM5.57257 63.9644H6.28006V63.2544H5.57257V63.9644ZM3.23709 61.7427C2.71241 61.7265 2.32792 61.7959 1.82966 61.631C0.0172516 61.0333 0.445413 58.433 2.5571 58.433H3.23709V61.7427ZM7.35208 57.742H6.66347V61.7427H3.92571V57.742C3.10012 57.7675 2.44386 57.659 1.67004 57.9188C1.02133 58.138 0.491249 58.541 0.202213 59.1593C-0.0986865 59.8026 -0.0442225 60.6216 0.23295 61.1467C0.731753 62.0937 1.7752 62.4343 2.84075 62.4343H7.35208V57.742ZM66.7706 62.4343H67.4592V56.2314H66.7706V62.4343ZM74.7838 56.2314H74.0763V56.9414H74.7838V56.2314Z" fill="#2B2B2B"/>
<path d="M0.674683 66.9774H1.53909V69.4605L3.87889 66.9774H4.94012L2.8953 69.1009L5.03126 71.9154H3.98458L2.30536 69.6932L1.53909 70.4835V71.9154H0.674683" fill="#2B2B2B"/>
<path d="M5.81958 66.9774H6.68399V71.9154H5.81958V66.9774Z" fill="#2B2B2B"/>
<path d="M8.01489 66.9774H8.81621L11.4515 70.3918V66.9774H12.3014V71.9154H11.5777L8.86528 68.4023V71.9154H8.01489" fill="#2B2B2B"/>
<path d="M13.3717 69.4605V69.4464C13.3717 68.0638 14.4259 66.8922 15.9083 66.8922C16.7657 66.8922 17.2931 67.1325 17.7989 67.5626L17.251 68.2189C15.9191 67.081 14.2787 67.9005 14.2787 69.4323V69.4464C14.2787 70.4623 14.9458 71.2097 15.9504 71.2097C16.4147 71.2097 16.8364 71.0616 17.1383 70.836V69.9117H15.8803V69.1573H17.9747V71.2308C16.2157 72.7425 13.3717 71.9658 13.3717 69.4605Z" fill="#2B2B2B"/>
<path d="M21.0026 71.1251C23.2965 71.1251 23.269 67.7671 21.0026 67.7671H20.033V71.1251H21.0026ZM19.1686 66.9774H21.0026C24.512 66.9774 24.4645 71.9154 21.0026 71.9154H19.1686V66.9774Z" fill="#2B2B2B"/>
<path d="M28.6637 69.4605V69.4464C28.6637 68.4869 27.968 67.6901 26.9909 67.6901C26.0144 67.6901 25.3327 68.4728 25.3327 69.4323V69.4464C25.3327 70.4059 26.0284 71.2032 27.0049 71.2032C27.9821 71.2032 28.6637 70.42 28.6637 69.4605ZM24.4263 69.4605V69.4464C24.4263 68.0567 25.4945 66.8922 27.0049 66.8922C28.5159 66.8922 29.5701 68.0426 29.5701 69.4323V69.4464C29.5701 70.836 28.5024 72 26.9909 72C25.4805 72 24.4263 70.8501 24.4263 69.4605Z" fill="#2B2B2B"/>
<path d="M30.6438 66.9774H31.5643L33.0612 69.3124L34.5577 66.9774H35.4781V71.9154H34.6137V68.3741L33.0612 70.7021H33.0332L31.4942 68.3882V71.9154H30.6438" fill="#2B2B2B"/>
<path d="M42.8734 69.4605V69.4464C42.8734 68.4869 42.1778 67.6901 41.2006 67.6901C40.2241 67.6901 39.5425 68.4728 39.5425 69.4323V69.4464C39.5425 70.4059 40.2381 71.2032 41.2147 71.2032C42.1918 71.2032 42.8734 70.42 42.8734 69.4605ZM38.636 69.4605V69.4464C38.636 68.0567 39.7042 66.8922 41.2147 66.8922C42.7256 66.8922 43.7799 68.0426 43.7799 69.4323V69.4464C43.7799 70.836 42.7116 72 41.2006 72C39.6902 72 38.636 70.8501 38.636 69.4605Z" fill="#2B2B2B"/>
<path d="M44.854 66.9774H48.5149V67.7677H45.7184V69.115H48.199V69.9047H45.7184V71.9154H44.854" fill="#2B2B2B"/>
<path d="M51.243 71.1962L51.7629 70.5751C52.2336 70.9846 52.7044 71.2173 53.3159 71.2173C53.8498 71.2173 54.1873 70.9705 54.1873 70.5963V70.5827C54.1873 69.4795 51.4393 70.2323 51.4393 68.3529V68.3388C51.4393 66.8234 53.5483 66.4366 54.904 67.5279L54.4402 68.1837C53.3089 67.337 52.3043 67.67 52.3043 68.2618V68.2759C52.3043 69.3634 55.0517 68.6757 55.0517 70.4976V70.5117C55.0517 72.243 52.6111 72.4214 51.243 71.1962Z" fill="#2B2B2B"/>
<path d="M58.9375 69.9546L58.0871 67.9792L57.2437 69.9546H58.9375ZM57.7004 66.9421H58.5012L60.6657 71.9154H59.7523L59.2535 70.7232H56.9271L56.4219 71.9154H55.5359L57.7004 66.9421Z" fill="#2B2B2B"/>
<path d="M61.1743 69.8207V66.9774H62.0387V69.7854C62.0387 70.7026 62.5095 71.1962 63.2822 71.1962C64.0485 71.1962 64.5193 70.7308 64.5193 69.8207V66.9774H65.3837V69.7784C65.3837 71.2526 64.5543 71.9935 63.2682 71.9935C61.9891 71.9935 61.1743 71.2526 61.1743 69.8207Z" fill="#2B2B2B"/>
<path d="M68.4828 71.1251C70.7767 71.1251 70.7498 67.7671 68.4828 67.7671H67.5132V71.1251H68.4828ZM66.6488 66.9774H68.4828C71.9922 66.9774 71.9447 71.9154 68.4828 71.9154H66.6488V66.9774Z" fill="#2B2B2B"/>
<path d="M72.1917 66.9774H73.056V71.9154H72.1917V66.9774Z" fill="#2B2B2B"/>
<path d="M79.4591 69.9546L78.6087 67.9792L77.7653 69.9546H79.4591ZM78.222 66.9421H79.0228L81.1873 71.9154H80.2739L79.7751 70.7232H77.4487L76.9435 71.9154H76.0575L78.222 66.9421Z" fill="#2B2B2B"/>
<path d="M84.1333 69.4253C84.7519 69.4253 85.1455 69.1009 85.1455 68.5997V68.5856C85.1455 68.0568 84.7659 67.7671 84.1263 67.7671H82.8688V69.4253H84.1333ZM82.0044 66.9774H84.1964C85.2361 66.9774 86.0239 67.503 86.0239 68.5363C86.004 68.5905 86.1264 69.6796 84.85 70.0463L86.1782 71.9154H85.159L83.9505 70.1938C83.8562 70.1938 82.8133 70.1938 82.8688 70.1938V71.9154H82.0044V66.9774Z" fill="#2B2B2B"/>
<path d="M90.2154 69.9546L89.365 67.9792L88.5216 69.9546H90.2154ZM88.9784 66.9421H89.7797L91.9437 71.9154H91.0302L90.5314 70.7232H88.2051L87.6998 71.9154H86.8138L88.9784 66.9421Z" fill="#2B2B2B"/>
<path d="M95.0438 71.1468C95.6343 71.1468 95.9924 70.9136 95.9924 70.4694V70.4553C95.9924 70.0392 95.6624 69.7919 94.9807 69.7919H93.6105V71.1468H95.0438ZM94.7909 69.0586C95.3458 69.0586 95.7184 68.84 95.7184 68.3882V68.3741C95.7184 67.9863 95.4094 67.7465 94.854 67.7465H93.6105V69.0586H94.7909ZM92.7601 66.9774H94.9667C95.8317 66.9774 96.5828 67.3842 96.5828 68.2331C96.5629 68.2873 96.6713 68.9349 95.8802 69.3477C96.4567 69.5451 96.8568 69.8771 96.8568 70.5469V70.561C96.8568 71.443 96.1331 71.9154 95.0368 71.9154H92.7601V66.9774Z" fill="#2B2B2B"/>
<path d="M97.9272 66.9774H98.7917V71.9154H97.9272V66.9774Z" fill="#2B2B2B"/>
<path d="M103.018 69.9546L102.168 67.9792L101.324 69.9546H103.018ZM101.781 66.9421H102.582L104.747 71.9154H103.833L103.334 70.7232H101.008L100.503 71.9154H99.6167L101.781 66.9421Z" fill="#2B2B2B"/>
</g>
</svg>