<svg width="536" height="52" viewBox="0 0 536 52" fill="none" xmlns="http://www.w3.org/2000/svg">
<path d="M156.871 4.32967C156.281 4.37821 155.131 4.55414 155.076 4.59661C155.045 4.62694 154.887 4.66334 154.729 4.68761C154.571 4.71187 154.449 4.75435 154.467 4.77861C154.485 4.80895 154.449 4.81501 154.394 4.80288C154.254 4.76648 153.104 5.17295 152.428 5.50055C151.704 5.84028 150.833 6.34382 150.712 6.48335C150.657 6.55009 150.596 6.59862 150.584 6.58649C150.499 6.53189 148.905 7.84839 148.642 8.18202C148.558 8.29732 148.375 8.50359 148.229 8.64919C148.003 8.87362 147.979 8.91612 148.053 9.01319C148.119 9.09812 148.119 9.10415 148.053 9.04349C147.985 8.98892 147.925 9.02532 147.766 9.21946C147.651 9.35292 147.578 9.49242 147.602 9.52279C147.62 9.55919 147.608 9.57132 147.578 9.55309C147.486 9.49852 146.872 10.4328 146.445 11.27C146.038 12.089 145.563 13.3994 145.429 14.091C145.393 14.2912 145.338 14.5339 145.307 14.637C145.234 14.8857 145.137 15.6623 145.088 16.3964C145.052 16.9969 145.143 18.5804 145.247 19.0596C145.466 20.1092 145.563 20.4913 145.642 20.6733C145.691 20.7886 145.758 21.007 145.8 21.1587C145.837 21.3043 145.922 21.553 145.989 21.7047C146.208 22.1779 146.701 23.1849 146.78 23.3124C147.547 24.5196 147.857 24.9321 147.949 24.8776C147.985 24.8593 147.998 24.8593 147.973 24.8897C147.906 24.9564 148.04 25.1748 148.119 25.1263C148.156 25.102 148.168 25.1081 148.15 25.1445C148.101 25.2233 148.314 25.4236 148.381 25.3629C148.405 25.3325 148.412 25.3508 148.387 25.3932C148.357 25.4417 148.472 25.6056 148.704 25.8422C149.038 26.188 149.081 26.2122 149.184 26.1334C149.288 26.0485 149.288 26.0485 149.209 26.1516C149.136 26.2426 149.16 26.285 149.421 26.5156C149.586 26.6551 149.75 26.7643 149.793 26.7643C149.835 26.7582 149.854 26.7825 149.835 26.8129C149.817 26.8432 149.854 26.8857 149.927 26.9038C149.994 26.9221 150.043 26.9585 150.025 26.9827C150.006 27.007 150.036 27.0434 150.079 27.0616C150.127 27.0798 150.359 27.2314 150.59 27.4013C151.156 27.8138 151.868 28.2082 151.953 28.1597C151.996 28.1293 152.002 28.1414 151.972 28.1961C151.935 28.2567 151.948 28.2689 152.026 28.2385C152.081 28.2142 152.118 28.2203 152.099 28.2506C152.069 28.2992 152.721 28.6207 153.037 28.7117C153.122 28.736 153.201 28.7785 153.219 28.7966C153.28 28.8816 154.674 29.282 155.471 29.4518C156.257 29.6157 156.36 29.6217 157.936 29.6157C159.488 29.6157 159.622 29.6035 160.34 29.4518C161.131 29.282 162.538 28.8755 162.592 28.8027C162.611 28.7785 162.689 28.736 162.775 28.7117C163.091 28.6207 163.742 28.2992 163.712 28.2506C163.694 28.2203 163.73 28.2142 163.785 28.2385C163.864 28.2689 163.877 28.2567 163.84 28.1961C163.809 28.1414 163.815 28.1293 163.858 28.1597C163.943 28.2082 164.656 27.8138 165.221 27.4013C165.453 27.2314 165.684 27.0798 165.732 27.0616C165.775 27.0434 165.805 27.007 165.787 26.9827C165.769 26.9585 165.818 26.9221 165.885 26.9038C165.958 26.8857 165.995 26.8432 165.97 26.8068C165.951 26.7704 165.97 26.7522 166.013 26.7704C166.134 26.8189 167.491 25.5085 167.431 25.4053C167.4 25.3568 167.407 25.3386 167.443 25.3629C167.522 25.4114 167.723 25.1991 167.662 25.1324C167.631 25.1081 167.644 25.102 167.686 25.1263C167.772 25.1748 167.905 24.9625 167.838 24.8897C167.814 24.8593 167.826 24.8593 167.863 24.8776C167.954 24.9321 168.264 24.5196 169.031 23.3124C169.111 23.1849 169.603 22.1779 169.822 21.7047C169.89 21.553 169.974 21.3043 170.011 21.1587C170.054 21.007 170.121 20.7886 170.169 20.6733C170.249 20.4913 170.346 20.1092 170.565 19.0596C170.79 17.998 170.76 15.4924 170.504 14.637C170.474 14.5339 170.419 14.2912 170.382 14.091C170.249 13.3994 169.773 12.089 169.366 11.27C168.94 10.4328 168.325 9.49852 168.234 9.55309C168.204 9.57132 168.191 9.55919 168.21 9.52279C168.234 9.49242 168.161 9.35292 168.045 9.21946C167.887 9.02532 167.826 8.98892 167.759 9.04349C167.692 9.10415 167.692 9.09812 167.759 9.00709C167.832 8.91612 167.808 8.86759 167.534 8.58242C167.363 8.41255 167.163 8.18812 167.09 8.09709C166.865 7.79986 165.38 6.59862 165.252 6.60469C165.227 6.60469 165.154 6.55009 165.099 6.48335C164.978 6.34382 164.107 5.84028 163.383 5.50055C162.708 5.17295 161.558 4.76648 161.418 4.80288C161.363 4.81501 161.326 4.80895 161.345 4.77861C161.363 4.75435 161.241 4.71187 161.082 4.68761C160.925 4.66334 160.772 4.62694 160.736 4.59661C160.529 4.43887 157.809 4.25081 156.871 4.32967Z" fill="#1A8597"/>
<path d="M135.691 18.1375C135.691 18.726 135.892 20.4004 136.063 21.2497C136.671 24.3073 137.779 26.9766 139.483 29.4701C142.496 33.8866 147 37.0352 152.185 38.3578C153.049 38.5822 153.695 38.7035 154.741 38.8552C155.624 38.9826 158.995 39.0311 160.128 38.9341C162.702 38.7157 165.155 38.0423 167.735 36.835C169.238 36.1313 171.813 34.4083 172.732 33.4862C172.841 33.383 172.957 33.286 173 33.2799C173.055 33.2678 173.073 34.3294 173.066 38.1272L173.055 42.9987H176.59H180.12V30.4407V17.8827H177.017C174.101 17.8827 173.912 17.8888 173.912 17.9858C173.907 18.0889 173.809 18.8169 173.766 19.0657C173.754 19.1324 173.712 19.3751 173.675 19.5996C173.158 22.6572 171.648 25.6056 169.452 27.826C168.91 28.372 167.997 29.191 167.553 29.5186C165.367 31.1384 162.738 32.1879 159.975 32.5458C159.062 32.6611 157.115 32.6733 156.233 32.5701C153.585 32.2546 151.12 31.3325 148.899 29.8158C147.158 28.6268 145.247 26.5641 144.249 24.7987C144.011 24.3861 143.238 22.7967 143.238 22.73C143.238 22.6996 143.183 22.5601 143.123 22.4145C142.739 21.5833 142.295 19.6724 142.173 18.3195L142.131 17.8827H138.911H135.691V18.1375Z" fill="#1A8597"/>
<path d="M10.8149 12.6444V13.5226H18.4197H26.0245V12.6444V11.7661H18.4197H10.8149V12.6444Z" fill="#1A8597"/>
<path d="M118.209 18.5146V24.3386H111.115H104.02V19.8735L104.01 15.4177L102.852 16.6195C102.212 17.2758 101.553 17.9876 101.377 18.191L101.061 18.57L101.033 21.4266L101.006 24.2924L96.4893 24.3201L91.9633 24.3386V20.1786V16.0186H84.2941C78.071 16.0186 76.522 16.0463 76.1325 16.148C75.0571 16.4346 74.3059 16.9892 73.7954 17.886L73.5081 18.3759V21.3526V24.3386H68.5001H63.4921V18.5608V12.783H61.9619H60.4316V18.5608V24.3478L60.6542 24.7823C60.9232 25.3185 61.5539 25.9101 62.1844 26.2244C63.2603 26.7699 61.2292 26.7421 92.5476 26.7421H121.27V19.7164V12.6906H119.74H118.209V18.5146ZM88.8104 21.3341V24.3386H82.782H76.7543V21.3341V18.3297H82.782H88.8104V21.3341Z" fill="#1A8597"/>
<path d="M124.516 19.7626V26.7421H126.046H127.576V19.7626V12.7831H126.046H124.516V19.7626Z" fill="#1A8597"/>
<path d="M10.0729 16.1665C9.10839 16.4253 8.30155 17.054 7.81925 17.9044L7.56885 18.3575V22.5452V26.7421H31.9968C45.435 26.7421 56.4526 26.7144 56.4712 26.6682C56.4897 26.6312 56.4897 24.2184 56.4619 21.3064L56.4155 16.0186H48.7551C40.2972 16.0186 40.4826 16.0093 39.481 16.601C38.9802 16.906 38.5444 17.3591 38.1919 17.9876C37.9972 18.3297 37.9879 18.4314 37.9879 21.3434V24.3386H32.0061H26.0243V20.1786V16.0186L18.3082 16.0279C11.8164 16.0279 10.4995 16.0556 10.0729 16.1665ZM22.8526 21.3527L22.8711 24.3386H16.843H10.8148V21.3341V18.3297L16.8244 18.3482L22.8248 18.3759L22.8526 21.3527ZM53.2716 21.3527L53.2902 24.3386H47.262H41.2338V21.3341V18.3297L47.2434 18.3482L53.2438 18.3759L53.2716 21.3527Z" fill="#1A8597"/>
<path d="M94.6528 29.8391V30.7172H102.257H109.863V29.8391V28.9608H102.257H94.6528V29.8391Z" fill="#1A8597"/>
<path d="M21.7583 36.7908C21.7583 40.3777 21.8418 41.4131 22.2035 42.4669C22.695 43.8536 23.7523 44.778 25.1804 45.0461C25.468 45.1016 27.2949 45.1386 29.5115 45.1386H33.3509V43.7057V42.282L29.8083 42.2543L26.2563 42.2266L25.8389 41.9955C25.5421 41.8291 25.3567 41.6442 25.2176 41.3484C25.0043 40.9416 25.0043 40.8954 25.0043 37.1699V33.3981H23.3813H21.7583V36.7908Z" fill="#1A8597"/>
<path d="M35.1411 34.9882C35.1689 35.8941 35.2524 36.8648 35.3359 37.2253C35.6511 38.6212 36.3838 39.6751 37.4318 40.2298C38.3407 40.7197 38.9249 40.7937 41.8555 40.7937H44.4708L44.3781 41.0525C44.2482 41.4316 43.766 41.866 43.2745 42.0602C42.9221 42.1896 42.4584 42.2266 40.3346 42.2543L37.8028 42.282V43.7149V45.1386H40.5294C42.5604 45.1386 43.4414 45.1016 43.9886 44.9999C45.8805 44.6394 47.1139 43.4653 47.6982 41.4778C47.8281 41.0156 47.8559 40.3962 47.893 37.2068L47.9208 33.4906H46.2514H44.5729V35.663V37.8447L41.9854 37.817C39.537 37.7892 39.3793 37.78 39.1383 37.5951C38.5262 37.1421 38.4983 37.0589 38.4705 35.1453L38.4427 33.3981H36.764H35.0854L35.1411 34.9882Z" fill="#1A8597"/>
<path d="M11.0657 33.5923C9.73945 33.9066 8.40398 35.2008 7.83828 36.7354C7.62495 37.3178 7.62495 37.401 7.58788 41.2282L7.56006 45.1386H9.183H10.8153V44.1679V43.1972H13.7366H16.6579V44.1679V45.1386H18.2809H19.9038V39.3146V33.4906L15.6656 33.4999C13.3285 33.5091 11.2604 33.546 11.0657 33.5923ZM16.6579 38.3439V40.4239H13.7366H10.8153V39.3331C10.8153 37.6876 11.1676 36.9388 12.1507 36.4858C12.6051 36.2732 12.7164 36.2639 14.6454 36.2639H16.6579V38.3439Z" fill="#1A8597"/>
<path d="M53.2624 33.5923C51.9363 33.9066 50.6008 35.2008 50.0351 36.7354C49.8218 37.3178 49.8218 37.401 49.7847 41.2282L49.7568 45.1386H51.3799H53.012V44.1679V43.1972H55.9334H58.8547V44.1679V45.1386H60.4777H62.1007V39.3146V33.4906L57.8624 33.4999C55.5254 33.5091 53.4572 33.546 53.2624 33.5923ZM58.8547 38.3439V40.4239H55.9334H53.012V39.3331C53.012 37.6876 53.3645 36.9388 54.3475 36.4858C54.802 36.2732 54.9133 36.2639 56.8423 36.2639H58.8547V38.3439Z" fill="#1A8597"/>
<path d="M63.8628 39.3146V45.1386H65.5321H67.2015V40.7012V36.2639H68.2031C69.3345 36.2639 69.7707 36.3564 70.1693 36.6892C70.6889 37.1329 70.7257 37.4564 70.7257 41.5055V45.1386H72.3582H73.9809L73.9531 41.1358C73.9253 37.7338 73.8975 37.0775 73.7674 36.6892L73.6102 36.2455L74.7412 36.2824C76.021 36.3287 76.5872 36.5228 76.9857 37.0404C77.3752 37.5581 77.4031 37.8817 77.4031 41.598V45.1386H79.0355H80.6583L80.6304 41.182C80.6026 37.2716 80.6026 37.2253 80.3801 36.6799C79.9439 35.5799 78.9521 34.3596 78.1633 33.962C77.2452 33.4906 77.1714 33.4906 70.2896 33.4906H63.8628V39.3146Z" fill="#1A8597"/>
<path d="M86.0002 33.5923C84.6738 33.9066 83.3383 35.2008 82.7729 36.7354C82.5593 37.3178 82.5593 37.401 82.5225 41.2282L82.4946 45.1386H84.1174H85.7498V44.1679V43.1972H88.6712H91.5925V44.1679V45.1386H93.2153H94.8387V39.3146V33.4906L90.6 33.4999C88.2629 33.5091 86.195 33.546 86.0002 33.5923ZM91.5925 38.3439V40.4239H88.6712H85.7498V39.3331C85.7498 37.6876 86.1025 36.9388 87.0853 36.4858C87.5395 36.2732 87.6508 36.2639 89.5803 36.2639H91.5925V38.3439Z" fill="#1A8597"/>
<path d="M96.6006 39.3146V45.1386H98.2699H99.9393V40.7012V36.2639H100.941C102.073 36.2639 102.508 36.3564 102.907 36.6892C103.426 37.1329 103.464 37.4564 103.464 41.5055V45.1386H105.095H106.719L106.691 41.1358C106.663 37.7338 106.635 37.0775 106.505 36.6892L106.347 36.2455L107.479 36.2824C108.759 36.3287 109.324 36.5228 109.724 37.0404C110.113 37.5581 110.141 37.8817 110.141 41.598V45.1386H111.773H113.396L113.368 41.182C113.341 37.2716 113.341 37.2253 113.118 36.6799C112.682 35.5799 111.689 34.3596 110.901 33.962C109.983 33.4906 109.909 33.4906 103.028 33.4906H96.6006V39.3146Z" fill="#1A8597"/>
<path d="M115.241 39.3146V45.1386H116.911H118.58V44.1679V43.1972H121.455H124.33V44.1679V45.1386H125.962H127.585L127.557 41.2282C127.52 36.7539 127.53 36.8001 126.63 35.4596C126.12 34.7108 125.517 34.2024 124.654 33.7956L124.098 33.5368L119.674 33.5091L115.241 33.4814V39.3146ZM122.762 36.3656C123.301 36.532 123.764 36.9665 124.061 37.5951C124.311 38.122 124.33 38.233 124.33 39.2868V40.4239H121.455H118.58V38.3439V36.2639H120.491C121.659 36.2639 122.549 36.3009 122.762 36.3656Z" fill="#1A8597"/>
<mask id="mask0_4056_87" style="mask-type:luminance" maskUnits="userSpaceOnUse" x="202" y="2" width="334" height="47">
<path d="M536 2H202V49H536V2Z" fill="white"/>
</mask>
<g mask="url(#mask0_4056_87)">
<mask id="mask1_4056_87" style="mask-type:luminance" maskUnits="userSpaceOnUse" x="202" y="2" width="334" height="47">
<path d="M536 2H202V49H536V2Z" fill="white"/>
</mask>
<g mask="url(#mask1_4056_87)">
<path d="M213 41.9822L213.456 39.815C214.485 40.2413 215.583 40.4717 216.695 40.4946C218.061 40.4946 218.744 40.0202 218.744 39.0713C218.763 38.8493 218.725 38.6262 218.633 38.4238C218.541 38.2215 218.398 38.0469 218.219 37.9174C217.625 37.5628 216.987 37.2891 216.321 37.1031C215.402 36.8237 214.556 36.3422 213.842 35.6926C213.554 35.3837 213.332 35.0186 213.188 34.6195C213.045 34.2204 212.983 33.7957 213.007 33.3718C212.98 32.8726 213.067 32.3739 213.26 31.9138C213.453 31.4537 213.747 31.0445 214.12 30.7175C215.023 30.0423 216.131 29.711 217.251 29.7815C218.388 29.759 219.517 29.9774 220.566 30.4225L220.073 32.5512C219.227 32.1982 218.324 32.0112 217.409 31.9997C216.176 31.9997 215.562 32.4293 215.562 33.2819C215.549 33.4737 215.581 33.6658 215.654 33.8429C215.728 34.02 215.842 34.177 215.986 34.3014C216.47 34.6274 216.999 34.88 217.555 35.0516C218.15 35.261 218.643 35.4597 219.035 35.6477C219.44 35.8453 219.82 36.0905 220.168 36.3786C220.532 36.67 220.815 37.0523 220.99 37.4878C221.177 37.9802 221.267 38.5051 221.255 39.0329C221.282 39.5509 221.184 40.0677 220.971 40.5388C220.757 41.0102 220.434 41.4218 220.028 41.7384C219.08 42.4155 217.935 42.7518 216.777 42.6938C215.475 42.7302 214.18 42.4809 212.981 41.9629" fill="#1A8597"/>
<path d="M230.668 42.495L229.928 39.7446H225.405C225.157 40.5781 224.91 41.4949 224.665 42.495H222.053C223.135 38.2164 224.567 34.0367 226.335 29.9995H228.96C230.742 34.0331 232.181 38.2134 233.262 42.495H230.668ZM227.657 32.7115C227.006 34.295 226.453 35.918 226 37.5711H229.296C228.848 35.9188 228.301 34.2959 227.657 32.7115Z" fill="#1A8597"/>
<path d="M233.717 37.5327V29.9995H236.247V37.3533C236.247 39.4241 237.044 40.4627 238.626 40.4627C240.207 40.4627 240.992 39.4241 240.992 37.3533V29.9995H243.522V37.5327C243.614 38.9334 243.16 40.3149 242.257 41.3794C241.777 41.8461 241.206 42.2058 240.58 42.4354C239.955 42.6651 239.289 42.7596 238.626 42.7131C237.961 42.7586 237.295 42.6634 236.669 42.4339C236.043 42.2043 235.47 41.8453 234.989 41.3794C234.083 40.3164 233.628 38.9338 233.723 37.5327" fill="#1A8597"/>
<path d="M245.945 42.4951V29.9995H250.075C250.902 29.9726 251.725 30.1144 252.496 30.4162C253.267 30.7182 253.97 31.174 254.564 31.757C255.158 32.3398 255.63 33.0375 255.952 33.809C256.275 34.5803 256.441 35.4094 256.441 36.2472C256.441 37.085 256.275 37.9141 255.952 38.6856C255.63 39.4569 255.158 40.1548 254.564 40.7376C253.97 41.3204 253.267 41.7764 252.496 42.0782C251.725 42.3801 250.902 42.5219 250.075 42.4951H245.945ZM250 32.1729H248.469V40.3153H250C252.399 40.3153 253.597 38.9475 253.593 36.2119C253.588 33.4765 252.391 32.1302 250 32.1729Z" fill="#1A8597"/>
<path d="M260.639 29.993H258.122V42.495H260.639V29.993Z" fill="#1A8597"/>
<path d="M274.892 42.495L274.151 39.7446H269.61C269.361 40.5781 269.114 41.4949 268.869 42.495H266.276C267.358 38.2164 268.79 34.0367 270.558 29.9995H273.184C274.968 34.0321 276.407 38.2126 277.485 42.495H274.892ZM271.881 32.7115C271.229 34.295 270.676 35.918 270.223 37.5711H273.519C273.071 35.9188 272.524 34.2959 271.881 32.7115Z" fill="#1A8597"/>
<path d="M282.337 37.8533H281.578V42.495H279.048V29.9993H282.679C283.941 29.9241 285.194 30.2612 286.253 30.9611C286.671 31.2779 287.006 31.6949 287.227 32.175C287.448 32.6549 287.548 33.1828 287.518 33.7115C287.518 35.5067 286.702 36.62 285.07 37.0518C285.73 37.4202 286.245 38.0061 286.531 38.7123L288.328 42.495H285.614L283.938 38.9623C283.784 38.6302 283.554 38.3399 283.267 38.1161C282.985 37.9316 282.654 37.8399 282.318 37.8533M282.527 32.1729H281.559V35.7119H282.527C284.125 35.7119 284.924 35.1155 284.924 33.9231C284.951 33.6645 284.91 33.4034 284.806 33.166C284.702 32.9285 284.537 32.723 284.33 32.5703C283.777 32.2698 283.153 32.1321 282.527 32.1729Z" fill="#1A8597"/>
<path d="M297.626 42.495L296.886 39.7446H292.338C292.089 40.5781 291.842 41.4949 291.597 42.495H289.01C290.088 38.2157 291.518 34.0359 293.287 29.9995H295.912C297.696 34.0321 299.135 38.2126 300.213 42.495H297.626ZM294.609 32.7115C293.957 34.295 293.404 35.918 292.951 37.5711H296.253C295.808 35.918 295.261 34.2948 294.615 32.7115" fill="#1A8597"/>
<path d="M305.919 42.4951H301.744V29.9995H305.54C306.708 29.9319 307.871 30.2175 308.88 30.8201C309.27 31.0805 309.587 31.44 309.798 31.863C310.009 32.2858 310.106 32.7575 310.081 33.2308C310.103 33.7418 309.989 34.2498 309.751 34.701C309.513 35.1522 309.159 35.5301 308.728 35.7952C309.297 36.0407 309.778 36.4593 310.103 36.9932C310.428 37.5272 310.582 38.1503 310.543 38.7764C310.579 39.3038 310.486 39.8322 310.272 40.3144C310.058 40.7965 309.73 41.2175 309.316 41.5397C308.309 42.2168 307.112 42.5432 305.906 42.4693M304.179 32.1471V35.1668H305.995C306.208 35.1993 306.425 35.1814 306.629 35.1146C306.834 35.0476 307.02 34.9337 307.174 34.7814C307.328 34.6292 307.445 34.443 307.516 34.2374C307.587 34.0318 307.61 33.8123 307.583 33.5962C307.583 32.6345 306.906 32.1471 305.559 32.1471H304.179ZM304.179 37.0967V40.3024H305.742C306.346 40.3405 306.95 40.2189 307.494 39.9498C307.692 39.8243 307.851 39.6459 307.955 39.4343C308.059 39.2227 308.103 38.9862 308.082 38.7509C308.082 37.6545 307.374 37.1095 305.951 37.1095L304.179 37.0967Z" fill="#1A8597"/>
<path d="M314.959 29.993H312.441V42.495H314.959V29.993Z" fill="#1A8597"/>
<path d="M325.111 42.495L324.371 39.7446H319.823C319.578 40.5781 319.332 41.4949 319.083 42.495H316.496C317.573 38.2157 319.004 34.0359 320.772 29.9995H323.397C325.182 34.0321 326.621 38.2126 327.699 42.495H325.111ZM322.094 32.7115C321.443 34.295 320.889 35.918 320.437 37.5711H323.732C323.288 35.918 322.74 34.2948 322.094 32.7115Z" fill="#1A8597"/>
<path d="M336.631 37.8533H335.872V42.495H333.341V29.9995H336.972C338.236 29.9254 339.491 30.2624 340.553 30.9611C340.971 31.278 341.306 31.6951 341.527 32.175C341.748 32.6549 341.847 33.1828 341.818 33.7115C341.818 35.5067 341.002 36.6202 339.37 37.0518C340.029 37.4202 340.545 38.0061 340.831 38.7123L342.628 42.495H339.901L338.225 38.9625C338.071 38.6302 337.841 38.3401 337.554 38.1161C337.272 37.9318 336.941 37.8399 336.605 37.8533M336.821 32.1729H335.846V35.7119H336.821C338.415 35.7119 339.212 35.1156 339.212 33.9231C339.238 33.6647 339.198 33.4034 339.093 33.166C338.989 32.9285 338.825 32.7232 338.617 32.5703C338.067 32.2698 337.444 32.132 336.821 32.1729Z" fill="#1A8597"/>
<path d="M351.92 42.495L351.18 39.7446H346.632C346.383 40.5781 346.136 41.4949 345.892 42.495H343.305C344.382 38.2157 345.813 34.0359 347.581 29.9995H350.212C351.992 34.0334 353.428 38.2138 354.508 42.495H351.92ZM348.903 32.7115C348.255 34.2954 347.703 35.9183 347.252 37.5711H350.541C350.096 35.918 349.549 34.2948 348.903 32.7115Z" fill="#1A8597"/>
<path d="M358.588 29.993H356.07V42.495H358.588V29.993Z" fill="#1A8597"/>
<path d="M361.124 42.495V29.993H363.642V40.3215H368.626V42.495H361.124Z" fill="#1A8597"/>
<path d="M380.279 40.0844C380.653 38.9689 381.058 37.458 381.493 35.5516C381.927 33.6454 382.267 31.7946 382.511 29.9995H385.086C384.242 35.1284 383.134 39.2936 381.758 42.495H378.987C378.027 39.9643 377.263 37.3622 376.698 34.7117C376.122 37.361 375.349 39.9628 374.39 42.495H371.624C370.859 40.5755 370.225 38.6046 369.727 36.5966C369.141 34.3398 368.678 32.1409 368.336 29.9995H370.866C371.139 31.8203 371.49 33.6859 371.915 35.5964C372.237 37.1138 372.641 38.612 373.124 40.0844C373.579 38.832 374.043 37.2827 374.515 35.4361C374.972 33.6465 375.325 31.831 375.572 29.9995H377.855C378.114 31.8496 378.473 33.684 378.93 35.4939C379.304 37.0495 379.765 38.5822 380.31 40.0844" fill="#1A8597"/>
<path d="M393.298 42.495L392.557 39.7446H388.009C387.765 40.5781 387.517 41.4949 387.268 42.495H384.682C385.76 38.2154 387.194 34.0355 388.964 29.9995H391.589C393.368 34.0334 394.806 38.2138 395.884 42.495H393.298ZM390.286 32.7115C389.626 34.2935 389.066 35.9167 388.609 37.5711H391.905C391.454 35.9198 390.908 34.2971 390.267 32.7115" fill="#1A8597"/>
<path d="M399.888 42.495H397.358V37.4943C395.678 35.1888 394.303 32.6688 393.271 29.9995H395.858C396.584 31.9045 397.513 33.7235 398.629 35.4234C399.738 33.7234 400.659 31.9044 401.375 29.9995H403.968C402.921 32.6605 401.547 35.1784 399.882 37.4943L399.888 42.495Z" fill="#1A8597"/>
<path d="M404.715 41.9822L405.17 39.815C406.202 40.242 407.302 40.4724 408.416 40.4947C409.776 40.4947 410.458 40.0202 410.458 39.0713C410.476 38.8503 410.437 38.6285 410.345 38.4268C410.254 38.225 410.114 38.0497 409.94 37.9174C409.345 37.5648 408.706 37.2912 408.042 37.1031C407.124 36.8252 406.28 36.3433 405.569 35.6926C405.279 35.385 405.055 35.0202 404.91 34.621C404.765 34.2217 404.703 33.7964 404.728 33.3718C404.7 32.8726 404.788 32.3739 404.98 31.9138C405.174 31.4537 405.468 31.0445 405.841 30.7175C406.752 30.0356 407.873 29.7038 409.003 29.7815C410.139 29.7599 411.265 29.9782 412.312 30.4225L411.818 32.5512C410.975 32.1984 410.074 32.0112 409.161 31.9997C407.897 31.9997 407.308 32.4293 407.308 33.282C407.297 33.4735 407.329 33.6651 407.402 33.8421C407.476 34.0189 407.588 34.176 407.733 34.3014C408.218 34.6261 408.745 34.8787 409.301 35.0516C409.804 35.2236 410.298 35.4226 410.781 35.6477C411.187 35.8464 411.569 36.0917 411.92 36.3786C412.28 36.6722 412.561 37.0539 412.735 37.4878C412.922 37.9802 413.014 38.5052 413.002 39.0329C413.028 39.5509 412.931 40.0677 412.716 40.5388C412.503 41.0102 412.179 41.4218 411.774 41.7384C410.825 42.4156 409.682 42.7518 408.523 42.6938C407.22 42.7295 405.925 42.4804 404.728 41.9629" fill="#1A8597"/>
<path d="M218.865 9.22681L220.237 10.5668L221.876 8.88701L220.199 7.18802L218.865 8.54081L217.498 7.18802L215.841 8.88701L217.511 10.5668L218.865 9.22681Z" fill="#1A8597"/>
<path d="M216.625 19.0617C215.588 19.0617 214.999 18.5232 214.999 17.6384C214.999 16.2279 216.214 15.1124 218.402 14.6764V17.6384C218.405 17.995 218.434 18.3508 218.491 18.7027C217.898 18.9438 217.264 19.0656 216.625 19.0617ZM221.875 21.3891H223.337C225.936 21.3891 227.29 20.0042 227.29 17.8372C227.229 16.0935 227.049 14.3562 226.752 12.6376H224.513C224.806 14.2294 224.984 15.8408 225.045 17.4589C225.045 18.5232 224.633 19.0104 223.337 19.0104H221.875C220.933 19.0104 220.648 18.5424 220.648 17.7282V11.6631H218.402V12.6376C214.234 13.3236 212.811 15.8432 212.811 17.8564C212.811 20.0554 214.272 21.3698 216.606 21.3698C217.589 21.3322 218.543 21.0218 219.364 20.4722C219.705 20.7858 220.105 21.0268 220.539 21.181C220.974 21.3352 221.435 21.3993 221.894 21.3698" fill="#1A8597"/>
<path d="M224.513 23.7741L223.178 22.4726L221.521 24.1524L223.21 25.8322L224.513 24.5307L225.829 25.8322L227.486 24.1524L225.81 22.4726L224.513 23.7741Z" fill="#1A8597"/>
<path d="M231.529 12.6376C232.737 15.2021 233.426 17.2922 233.426 17.9654C233.426 18.6387 232.876 19.0104 231.592 19.0104C230.599 18.9926 229.613 18.846 228.657 18.5745L228.227 20.8312C229.489 21.1993 230.797 21.3871 232.111 21.3891C234.426 21.3891 235.634 20.2734 235.634 18.3052C235.634 17.0806 234.938 14.8944 233.818 12.6376H231.529Z" fill="#1A8597"/>
<path d="M251.644 18.5936C250.981 17.3615 250.195 16.2014 249.298 15.1316C249.966 14.8278 250.685 14.656 251.417 14.6251C252.802 14.6251 253.605 15.2663 253.605 16.1767C253.605 17.0871 252.821 18.0552 251.644 18.5936ZM241.89 19.0617C240.094 19.0617 239.113 18.3757 239.113 16.9909C239.093 16.7231 239.127 16.454 239.213 16.1998C239.299 15.9457 239.434 15.7118 239.612 15.5123C239.789 15.3127 240.005 15.1517 240.245 15.0389C240.485 14.9261 240.746 14.8638 241.011 14.8559C242.061 14.8559 242.681 15.4971 242.776 16.9332C242.776 17.5743 242.864 18.2155 242.896 19.049H241.884M274.778 17.4461C274.778 18.5104 274.366 18.9977 273.07 18.9977C272.328 19.0138 271.595 18.8253 270.951 18.4527C271.241 17.2249 271.373 15.9642 271.343 14.7021V13.4198H269.255V14.7021C269.255 16.4139 269.167 17.4974 268.863 18.1513C268.73 18.4421 268.508 18.6815 268.23 18.8341C267.952 18.9865 267.633 19.0439 267.32 18.9977C266.708 18.996 266.104 18.8535 265.555 18.5809C265.877 17.3257 266.019 16.0303 265.979 14.7341H263.878C263.878 16.4459 263.79 17.5295 263.486 18.1834C263.352 18.4747 263.129 18.7144 262.85 18.8667C262.571 19.0193 262.25 19.0763 261.936 19.0297C261.277 19.0244 260.627 18.8641 260.039 18.5617C260.338 17.3026 260.476 16.0097 260.45 14.7149H258.362C258.362 16.4267 258.274 17.5102 257.97 18.1641C257.874 18.4409 257.687 18.6759 257.441 18.8298C257.195 18.9838 256.904 19.0476 256.617 19.0104C255.825 19.0227 255.034 18.9734 254.251 18.8629C254.717 18.4545 255.093 17.9511 255.355 17.3855C255.616 16.8199 255.757 16.2049 255.769 15.5804C255.769 13.7404 254.112 12.2786 251.606 12.2786C250.057 12.2786 248.096 13.0159 246.084 14.3558L247.008 16.2792L247.507 16.01C248.285 16.8757 248.966 17.8261 249.538 18.8438C248.386 18.9916 247.226 19.058 246.065 19.0425H245.078C245.078 18.0488 245.04 17.4204 245.002 16.7857C244.863 14.0802 243.351 12.5479 241.125 12.5479C238.74 12.5479 236.956 14.4713 236.956 17.0935C236.956 19.7157 238.791 21.4211 241.625 21.4211H242.833C242.44 22.5623 240.935 23.2483 238.468 23.2483V25.2615C242.896 25.2615 244.794 23.6908 245.078 21.3762H246.091C248.836 21.3762 250.114 21.1839 251.929 20.4017C253.386 21.1051 254.985 21.4521 256.597 21.4146C257.094 21.4417 257.59 21.3495 258.045 21.1457C258.5 20.9417 258.902 20.632 259.216 20.2414C260.425 21.0108 261.19 21.4146 262.095 21.4146C262.58 21.4387 263.065 21.3507 263.512 21.1575C263.959 20.9643 264.357 20.6707 264.675 20.2992C265.814 21.0556 266.573 21.4146 267.453 21.4146C267.969 21.4389 268.483 21.3388 268.954 21.1226C269.424 20.9064 269.838 20.5802 270.16 20.1709C270.932 20.94 271.962 21.3845 273.044 21.4146C275.644 21.4146 276.998 20.0299 276.998 17.8628V8.31H274.746L274.778 17.4461Z" fill="#1A8597"/>
<path d="M282.116 8.31H279.87V21.3955H282.116V8.31Z" fill="#1A8597"/>
<path d="M294.039 9.22681L295.412 10.5668L297.05 8.88701L295.38 7.18802L294.039 8.54081L292.673 7.18802L291.016 8.88701L292.692 10.5668L294.039 9.22681Z" fill="#1A8597"/>
<path d="M299.688 23.7741L298.347 22.4726L296.696 24.1524L298.385 25.8322L299.688 24.5307L301.004 25.8322L302.662 24.1524L300.985 22.4726L299.688 23.7741Z" fill="#1A8597"/>
<path d="M291.826 19.0617C290.788 19.0617 290.2 18.5232 290.2 17.6384C290.2 16.2279 291.414 15.1124 293.603 14.6764V17.6384C293.605 17.995 293.635 18.3508 293.692 18.7027C293.099 18.9438 292.465 19.0656 291.826 19.0617ZM297.076 21.3891H298.537C301.137 21.3891 302.491 20.0042 302.491 17.8372C302.43 16.0935 302.25 14.3562 301.953 12.6376H299.714C300.007 14.2294 300.184 15.8408 300.245 17.4589C300.245 18.5232 299.834 19.0104 298.537 19.0104H297.076C296.133 19.0104 295.849 18.5424 295.849 17.7282V11.6631H293.603V12.6376C289.434 13.3236 288.011 15.8432 288.011 17.8564C288.011 20.0554 289.472 21.3698 291.807 21.3698C292.79 21.3322 293.744 21.0218 294.565 20.4722C294.906 20.7858 295.305 21.0268 295.74 21.181C296.175 21.3352 296.635 21.3993 297.095 21.3698" fill="#1A8597"/>
<path d="M312.308 21.4146H313.77C316.37 21.4146 317.723 20.0299 317.723 17.8628C317.665 16.1193 317.487 14.3819 317.192 12.6633H314.946C315.239 14.2551 315.417 15.8665 315.478 17.4846C315.478 18.5488 315.073 19.0361 313.77 19.0361H312.308C311.863 19.0445 311.428 18.8938 311.081 18.6101C310.734 18.3264 310.497 17.9279 310.411 17.4846C309.979 15.9033 309.664 14.2918 309.468 12.6633H307.153C307.456 14.5635 307.89 16.4401 308.45 18.2796L308.665 18.8374C307.974 18.9794 307.27 19.046 306.565 19.0361C305.629 19.0275 304.7 18.8808 303.807 18.6001L303.376 20.8569C304.39 21.2314 305.461 21.4202 306.539 21.4146C307.691 21.4267 308.82 21.0871 309.778 20.4402C310.461 21.0917 311.371 21.4422 312.308 21.4146Z" fill="#1A8597"/>
<path d="M314.946 23.7741L313.611 22.4726L311.954 24.1524L313.643 25.8322L314.946 24.5307L316.261 25.8322L317.919 24.1524L316.243 22.4726L314.946 23.7741Z" fill="#1A8597"/>
<path d="M340.534 17.4589C340.534 18.5232 340.123 19.0104 338.826 19.0104C337.738 19.0104 337.149 18.7604 336.884 18.3244L337.434 18.2155L338.067 15.9074C334.809 15.0739 333.601 12.5158 330.912 12.5158C330.023 12.5522 329.155 12.8051 328.382 13.2531L329.014 15.2727C329.573 15.0116 330.178 14.8698 330.792 14.8559C332.361 14.8559 333.234 16.0164 335.264 17.0037C333.164 17.8179 331.754 19.0104 327.604 19.0104C327.158 19.019 326.724 18.8681 326.377 18.5844C326.03 18.3007 325.792 17.9023 325.706 17.4589C325.275 15.8777 324.96 14.2662 324.764 12.6376H322.448C322.751 14.5387 323.186 16.4156 323.751 18.2539L323.96 18.8117C323.269 18.9537 322.565 19.0203 321.86 19.0104C320.925 19.002 319.996 18.855 319.102 18.5745L318.672 20.8312C319.685 21.2057 320.756 21.3947 321.835 21.3891C322.986 21.4009 324.115 21.0614 325.074 20.4146C325.757 21.0654 326.667 21.4158 327.604 21.3891C332.323 21.3891 333.076 19.7286 335.479 18.7604C335.688 20.4915 336.846 21.3891 338.826 21.3891C341.426 21.3891 342.779 20.0041 342.779 17.8372V8.31H340.534V17.4589Z" fill="#1A8597"/>
<path d="M347.872 8.31H345.626V21.3955H347.872V8.31Z" fill="#1A8597"/>
<path d="M360.295 19.0104C359.334 19.0104 358.442 18.972 357.556 18.9014C360.719 15.3624 361.915 14.1763 363.521 14.1763C363.787 14.1589 364.053 14.1965 364.304 14.287C364.555 14.3775 364.785 14.519 364.98 14.7026C365.173 14.8863 365.33 15.1084 365.437 15.3552C365.544 15.6021 365.601 15.8685 365.603 16.1382C365.603 17.7987 363.521 19.0104 360.295 19.0104ZM363.939 11.7977C362.041 11.7977 360.542 12.8428 357.816 15.8561C358.095 14.7093 358.256 13.5361 358.296 12.3555V8.31641H356.051V17.8885C355.855 18.1449 355.64 18.3757 355.418 18.6322C354.861 18.5617 354.33 18.4527 353.799 18.3437L353.369 20.5812C355.589 21.1147 357.862 21.3942 360.144 21.4146C365.11 21.4146 367.874 19.1771 367.874 15.8433C367.902 15.3095 367.819 14.7758 367.632 14.2762C367.444 13.7765 367.157 13.3219 366.786 12.9413C366.416 12.5606 365.972 12.2624 365.481 12.0655C364.991 11.8686 364.466 11.7774 363.939 11.7977Z" fill="#1A8597"/>
<path d="M399.06 9.71409L397.383 8.04074L395.733 9.71409L397.402 11.3939L399.06 9.71409Z" fill="#1A8597"/>
<path d="M384.245 19.0106H381.486C384.586 15.5291 385.864 14.17 387.433 14.17C387.698 14.1533 387.963 14.1919 388.213 14.2833C388.462 14.3747 388.692 14.5171 388.884 14.7015C389.077 14.886 389.232 15.1086 389.336 15.3558C389.442 15.6029 389.495 15.8692 389.495 16.1382C389.495 17.7987 387.415 19.0106 384.245 19.0106ZM374.123 19.0618C372.327 19.0618 371.346 18.3758 371.346 16.9909C371.326 16.7231 371.361 16.454 371.447 16.1999C371.531 15.9457 371.668 15.7118 371.845 15.5123C372.023 15.3128 372.237 15.1517 372.478 15.0389C372.719 14.9261 372.979 14.8639 373.244 14.856C374.294 14.856 374.92 15.4971 375.01 16.9332C375.047 17.5744 375.098 18.2155 375.135 19.049H374.116M405.815 17.4461C405.815 18.5104 405.405 18.9977 404.102 18.9977C403.02 18.9977 402.431 18.7413 402.166 18.3117L402.716 18.2027L403.348 15.8946C400.091 15.0611 398.883 12.503 396.193 12.503C395.305 12.5387 394.436 12.7916 393.664 13.2403L394.296 15.2599C394.856 14.9988 395.465 14.857 396.079 14.8431C397.649 14.8431 398.521 16.0036 400.552 16.9909C398.447 17.8052 397.041 18.9977 392.892 18.9977C392.234 19.0091 391.583 18.8595 390.994 18.5617C391.523 17.7432 391.796 16.7827 391.778 15.8048C391.799 15.2772 391.711 14.751 391.524 14.2585C391.337 13.7659 391.051 13.3175 390.686 12.9405C390.322 12.5636 389.884 12.2661 389.403 12.0663C388.92 11.8665 388.402 11.7685 387.882 11.7785C386.079 11.7785 384.46 12.862 381.898 15.8754C382.178 14.7155 382.339 13.5296 382.378 12.3363V8.29721H380.133V18.0231C379.887 18.3501 379.633 18.6642 379.386 18.9977H377.338C377.338 18.0039 377.338 17.3756 377.268 16.7409C377.121 14.0353 375.61 12.503 373.383 12.503C370.999 12.503 369.221 14.4264 369.221 17.0486C369.221 19.6709 371.056 21.3762 373.884 21.3762H375.098C374.705 22.5174 373.201 23.2035 370.733 23.2035V25.2616C375.161 25.2616 377.058 23.6908 377.338 21.3762H384.46C386.334 21.4621 388.187 20.9389 389.748 19.8824C390.151 20.3313 390.639 20.6945 391.181 20.9509C391.724 21.2074 392.313 21.352 392.91 21.3762C397.63 21.3762 398.377 19.7157 400.78 18.7477C400.996 20.4786 402.153 21.3762 404.126 21.3762C406.726 21.3762 408.079 19.9915 408.079 17.8244V8.31002H405.841L405.815 17.4461Z" fill="#1A8597"/>
<path d="M413.185 8.31H410.939V21.3955H413.185V8.31Z" fill="#1A8597"/>
<path d="M451.815 42.4951H462.995L473.475 8.05524H469.72L451.815 42.4951Z" fill="#1A8597"/>
<path d="M478.831 8.05881H475.08L485.56 42.495H496.74L478.831 8.05881Z" fill="#1A8597"/>
<path d="M421.265 35.8051V42.4697H440.005C442.693 42.4486 445.262 41.3461 447.147 39.4049C449.035 37.4637 450.082 34.8428 450.061 32.1186C450.04 29.3944 448.952 26.7901 447.037 24.8788C445.122 22.9675 442.535 21.9054 439.848 21.9265H429.771C428.837 21.9255 427.942 21.5494 427.283 20.8807C426.623 20.2119 426.252 19.3051 426.25 18.3593V18.2798C426.252 17.334 426.623 16.4272 427.283 15.7584C427.942 15.0897 428.837 14.7135 429.771 14.7126H446.669V8.04074H429.553C426.891 8.0834 424.353 9.18456 422.485 11.1067C420.618 13.0289 419.57 15.6181 419.568 18.3159C419.572 21.0431 420.644 23.6571 422.547 25.5838C424.452 27.5105 427.033 28.5921 429.723 28.5911H439.802C440.734 28.5921 441.627 28.9678 442.288 29.6357C442.948 30.3038 443.319 31.2096 443.321 32.1547V32.256C443.321 33.2018 442.948 34.1084 442.289 34.7773C441.629 35.446 440.734 35.8222 439.802 35.8232L421.265 35.8051Z" fill="#1A8597"/>
<path d="M502.042 42.4951H508.461C508.483 42.4951 508.504 42.4862 508.518 42.4706C508.535 42.455 508.543 42.4339 508.543 42.4118V14.7885C508.543 14.7674 508.551 14.7471 508.566 14.7322C508.58 14.7173 508.6 14.709 508.621 14.709H520.032C520.987 14.709 521.901 15.0932 522.576 15.7771C523.252 16.4609 523.631 17.3885 523.631 18.3557C523.629 19.3015 523.258 20.2083 522.599 20.877C521.939 21.5458 521.044 21.9219 520.112 21.9229H512.137C512.124 21.9231 512.109 21.9269 512.098 21.9341C512.085 21.9412 512.075 21.9514 512.067 21.9638C512.06 21.9763 512.057 21.9904 512.057 22.0047C512.055 22.0191 512.059 22.0332 512.067 22.0458L523.496 42.3757C523.502 42.3887 523.512 42.3996 523.525 42.4073C523.538 42.4149 523.553 42.419 523.567 42.419H530.644C530.659 42.419 530.673 42.4151 530.685 42.408C530.698 42.4007 530.708 42.3905 530.714 42.3781C530.722 42.3658 530.725 42.3517 530.725 42.3374C530.727 42.3231 530.722 42.3089 530.716 42.2962L523.152 29.0321L522.796 28.3706C522.789 28.3604 522.786 28.349 522.786 28.3372C522.785 28.3255 522.786 28.3136 522.791 28.3025C522.794 28.2915 522.801 28.2814 522.809 28.2732C522.817 28.2649 522.829 28.2587 522.838 28.255L523.553 27.9984C524.568 27.6309 525.519 27.1028 526.374 26.4334C527.997 25.1575 529.199 23.4117 529.823 21.4273C530.444 19.443 530.457 17.3137 529.86 15.3217C529.261 13.3296 528.08 11.5687 526.473 10.2724C524.864 8.97602 522.907 8.20534 520.857 8.06243C520.675 8.06243 520.499 8.04435 520.315 8.04074H502.056C502.035 8.04074 502.014 8.0495 501.998 8.06508C501.983 8.08068 501.975 8.10182 501.975 8.12386V42.4118C501.975 42.4339 501.983 42.455 501.998 42.4706C502.014 42.4862 502.035 42.4951 502.056 42.4951" fill="#1A8597"/>
</g>
</g>
</svg>
